/* XPM */
static char *0_xpm[] = {
/* width height num_colors chars_per_pixel */
"    34    40      256            2",
/* colors */
"`` c #7fffffff",
"`. c #fefefe",
"`# c #fdfdfd",
"`a c #fcfcfc",
"`b c #fbfbfb",
"`c c #e2e2e2",
"`d c #c6c6c6",
"`e c #afafaf",
"`f c #9f9f9f",
"`g c #989898",
"`h c #979797",
"`i c #999999",
"`j c #a1a1a1",
"`k c #b3b3b3",
"`l c #cdcdcd",
"`m c #ededed",
"`n c #f6f6f6",
"`o c #c3c3c3",
"`p c #909090",
"`q c #797979",
"`r c #7e7e7e",
"`s c #8a8a8a",
"`t c #8f8f8f",
"`u c #939393",
"`v c #949494",
"`w c #929292",
"`x c #8e8e8e",
"`y c #898989",
"`z c #7b7b7b",
"`A c #808080",
"`B c #a5a5a5",
"`C c #e3e3e3",
"`D c #d8d8d8",
"`E c #8c8c8c",
"`F c #a8a8a8",
"`G c #d2d2d2",
"`H c #ececec",
"`I c #fafafa",
"`J c #f9f9f9",
"`K c #e8e8e8",
"`L c #c5c5c5",
"`M c #7d7d7d",
"`N c #bbbbbb",
"`O c #c9c9c9",
"`P c #b1b1b1",
"`Q c #f0f0f0",
"`R c #d3d3d3",
"`S c #878787",
"`T c #acacac",
"`U c #d6d6d6",
"`V c #8d8d8d",
"`W c #f1f1f1",
"`X c #bdbdbd",
"`Y c #f2f2f2",
"`Z c #e1e1e1",
"`0 c #f5f5f5",
"`1 c #aaaaaa",
"`2 c #dfdfdf",
"`3 c #dddddd",
"`4 c #cecece",
"`5 c #c8c8c8",
"`6 c #e0e0e0",
"`7 c #848484",
"`8 c #858585",
".` c #838383",
".. c #bcbcbc",
".# c #e4e4e4",
".a c #efefef",
".b c #f7f7f7",
".c c #f4f4f4",
".d c #f8f8f8",
".e c #d9d9d9",
".f c #959595",
".g c #cfcfcf",
".h c #dedede",
".i c #eeeeee",
".j c #e9e9e9",
".k c #cacaca",
".l c #7c7c7c",
".m c #eaeaea",
".n c #c0c0c0",
".o c #888888",
".p c #ebebeb",
".q c #dbdbdb",
".r c #dcdcdc",
".s c #a4a4a4",
".t c #b5b5b5",
".u c #b9b9b9",
".v c #b0b0b0",
".w c #b7b7b7",
".x c #767676",
".y c #969696",
".z c #b8b8b8",
".A c #d5d5d5",
".B c #d7d7d7",
".C c #737373",
".D c #818181",
".E c #aeaeae",
".F c #c4c4c4",
".G c #b4b4b4",
".H c #a2a2a2",
".I c #777777",
".J c #787878",
".K c #a3a3a3",
".L c #747474",
".M c #e6e6e6",
".N c #000000",
".O c #000000",
".P c #000000",
".Q c #000000",
".R c #000000",
".S c #000000",
".T c #000000",
".U c #000000",
".V c #000000",
".W c #000000",
".X c #000000",
".Y c #000000",
".Z c #000000",
".0 c #000000",
".1 c #000000",
".2 c #000000",
".3 c #000000",
".4 c #000000",
".5 c #000000",
".6 c #000000",
".7 c #000000",
".8 c #000000",
"#` c #000000",
"#. c #000000",
"## c #000000",
"#a c #000000",
"#b c #000000",
"#c c #000000",
"#d c #000000",
"#e c #000000",
"#f c #000000",
"#g c #000000",
"#h c #000000",
"#i c #000000",
"#j c #000000",
"#k c #000000",
"#l c #000000",
"#m c #000000",
"#n c #000000",
"#o c #000000",
"#p c #000000",
"#q c #000000",
"#r c #000000",
"#s c #000000",
"#t c #000000",
"#u c #000000",
"#v c #000000",
"#w c #000000",
"#x c #000000",
"#y c #000000",
"#z c #000000",
"#A c #000000",
"#B c #000000",
"#C c #000000",
"#D c #000000",
"#E c #000000",
"#F c #000000",
"#G c #000000",
"#H c #000000",
"#I c #000000",
"#J c #000000",
"#K c #000000",
"#L c #000000",
"#M c #000000",
"#N c #000000",
"#O c #000000",
"#P c #000000",
"#Q c #000000",
"#R c #000000",
"#S c #000000",
"#T c #000000",
"#U c #000000",
"#V c #000000",
"#W c #000000",
"#X c #000000",
"#Y c #000000",
"#Z c #000000",
"#0 c #000000",
"#1 c #000000",
"#2 c #000000",
"#3 c #000000",
"#4 c #000000",
"#5 c #000000",
"#6 c #000000",
"#7 c #000000",
"#8 c #000000",
"a` c #000000",
"a. c #000000",
"a# c #000000",
"aa c #000000",
"ab c #000000",
"ac c #000000",
"ad c #000000",
"ae c #000000",
"af c #000000",
"ag c #000000",
"ah c #000000",
"ai c #000000",
"aj c #000000",
"ak c #000000",
"al c #000000",
"am c #000000",
"an c #000000",
"ao c #000000",
"ap c #000000",
"aq c #000000",
"ar c #000000",
"as c #000000",
"at c #000000",
"au c #000000",
"av c #000000",
"aw c #000000",
"ax c #000000",
"ay c #000000",
"az c #000000",
"aA c #000000",
"aB c #000000",
"aC c #000000",
"aD c #000000",
"aE c #000000",
"aF c #000000",
"aG c #000000",
"aH c #000000",
"aI c #000000",
"aJ c #000000",
"aK c #000000",
"aL c #000000",
"aM c #000000",
"aN c #000000",
"aO c #000000",
"aP c #000000",
"aQ c #000000",
"aR c #000000",
"aS c #000000",
"aT c #000000",
"aU c #000000",
"aV c #000000",
"aW c #000000",
"aX c #000000",
"aY c #000000",
"aZ c #000000",
"a0 c #000000",
"a1 c #000000",
"a2 c #000000",
"a3 c #000000",
"a4 c #000000",
"a5 c #000000",
"a6 c #000000",
"a7 c #000000",
"a8 c #000000",
/* pixels */
"```````````````.```.`#```````````.`a`.`````````.`#`.```.````````````",
"```````````.```.`#`````b`c`d`e`f`g`h`i`j`k`l`m`````#`.``````````````",
"`````````````.`#```n`o`p`q`r`s`t`u`v`w`x`y`z`A`B`C```.`#`````.``````",
"```````.```.`#```D`E`A`F`G`H`I```````````J`K`L`v`M`N`a`.`.``````````",
"`````````.`.```O`A`P`Q`````````.`.`.`.```````````R`S`T`b`.`.`.``````",
"```````.`.```U`V`D`````a`#`.`.`.`#`#`#`.`.`#`#`#```W`i`X```.`.``````",
"```````#`.`Y`T`Z```a`#`````.`.`````````.`.`````.`b```0`1`2```#`.````",
"`````.`.```U`3```a`.`````.`#```Y`4`O`K```.`.```.`.`a```m`5`b`.`#````",
"`````#`.`J`6`.`#`.`````.`.```U`s`7`8.`..`#`.`#`````.`#``.#.a```.````",
"`.```.``.b`0```#`.`.`.`#`.`H`i`d.c.d.e.f.g```#`.`````#`.`J`W```.````",
"```.`.```a`#`.`.`````#`.```U.h`````````Y`L`J`.`#```.`.`.`#`I`.`.```.",
"`.```.`.```.```.`````#`.`.`m```#`#`.`a``.i`0```#`````````.`.`#`.```.",
"`.`.`.`.`.```````````.```.`#`#`.`.```.`#`#`#```.`````.`````.`.``````",
"```.`.```.`````````````.`.`.`.`.`````.`.`.`.`.``````````````````````",
"`.`.```.`.```````````.`.```#`.```.```.`.`.`.`.`.```````````.`.`.`.`.",
"```.`.`.`.```````````````.`.`.`.`.```.`.`.```.`````````````````.`.``",
"`.`.`.`.`.```````````````.`.`.`.`````.`.`.`.`.```````````````.`.```.",
"`.```.`.`.`````````````````.`````````````````````````````````.`.`.`.",
"```.```````````````````.```.`.```````.```.`.`.```````````````````.``",
"`.```.`.```````````````.```.`.```````.```.`.````````````````````````",
"`.```.`.```````````````.`.`.`.`.```````````````````````````````.`.``",
"```.`.```.```````````````````````````````````````````````````.`.`.``",
"`.`.`.`.`.```````````````.```.`.`````.```.`.```````````````````.`.``",
"`.`.`.`.`.```````````````.```.`.`````.```.`.`````````````````.`.`.``",
"`.`.`.`.`.```````````````.`.`.`.```.```.`.```.```````````````.`.```.",
"```.```.`.`.```.```````````````.`.`.`#`.```.```````````````.`.`.```.",
"`````````````.```.`````.```I`b``````````.d`.`.`.`````````.`````.`.``",
"`````.```.`.```.```.```#`.`J`l`3`0`J.j.k`C```.`.`````.`.```.`.`.`.``",
"```.`.`.`#`0`.`.`.```.`.`#```5.l`E`w`M`i`n`.`#```````#```I`J`.`.```.",
"```````#```H.m```#`.`````.`.`#.n`V.o`B.p```.`.`.`.`#`.`#`K`b`.`#```.",
"```````.`.`J`5.j```#`#`````.`````a`J`````.```````#`.``.q`c```.`.```.",
"```````#`#``.r.s.#`````#`.`.`.`#`````#`.`.`.`#`#````.g.t.d`.`#``````",
"```````.`.`#``.u`8`O`I`````.`.`#`#`#`#`.`.``````.i.v`S`6```#`.`.```.",
"```````.```.`#``.w.x.y`l`m`.``````````````.b`c.z`7`r.A```#`.`.`.````",
"`````````````.`#``.B`V.C.D`i.E`X.F.F.n.G.H`V.I.J.K.p```#````````````",
"```````.```.```.`#```a`R`F`E`A.J.L.L.I`M.o`i...M`````#`````.`.`.````",
"`````````````.`.`.`#```````a`Q`K.#.#.M`m.b```````#`.```.`.``````````",
"`````````````````.```.`#`#`````````````````#`a`#`.```.``````````````",
"```````````````````````````.`#`#`#`#`#`.`.`.````````````````````````",
"`````````````````````.`.`.`````````````.```.`.`.`.``````````````````"
};
