/* XPM */
static char *1_xpm[] = {
/* width height num_colors chars_per_pixel */
"    34    40      256            2",
/* colors */
"`` c #ffffff",
"`. c #fefefe",
"`# c #fbfbfb",
"`a c #fafafa",
"`b c #fdfdfd",
"`c c #f5f5f5",
"`d c #bfbfbf",
"`e c #9e9e9e",
"`f c #959595",
"`g c #949494",
"`h c #a0a0a0",
"`i c #c9c9c9",
"`j c #f9f9f9",
"`k c #f3f3f3",
"`l c #a8a8a8",
"`m c #939393",
"`n c #929292",
"`o c #999999",
"`p c #d7d7d7",
"`q c #bdbdbd",
"`r c #c0c0c0",
"`s c #dbdbdb",
"`t c #aeaeae",
"`u c #fcfcfc",
"`v c #9d9d9d",
"`w c #e4e4e4",
"`x c #c8c8c8",
"`y c #868686",
"`z c #cdcdcd",
"`A c #e7e7e7",
"`B c #a3a3a3",
"`C c #7d7d7d",
"`D c #cbcbcb",
"`E c #b1b1b1",
"`F c #7c7c7c",
"`G c #8a8a8a",
"`H c #dedede",
"`I c #ededed",
"`J c #aaaaaa",
"`K c #7b7b7b",
"`L c #808080",
"`M c #bababa",
"`N c #f8f8f8",
"`O c #eeeeee",
"`P c #898989",
"`Q c #bebebe",
"`R c #f2f2f2",
"`S c #e5e5e5",
"`T c #dadada",
"`U c #f7f7f7",
"`V c #c6c6c6",
"`W c #c2c2c2",
"`X c #8d8d8d",
"`Y c #777777",
"`Z c #f4f4f4",
"`0 c #f6f6f6",
"`1 c #eaeaea",
"`2 c #bcbcbc",
"`3 c #757575",
"`4 c #9a9a9a",
"`5 c #e2e2e2",
"`6 c #7f7f7f",
"`7 c #797979",
"`8 c #9f9f9f",
".` c #d9d9d9",
".. c #e3e3e3",
".# c #adadad",
".a c #909090",
".b c #919191",
".c c #989898",
".d c #979797",
".e c #9b9b9b",
".f c #000000",
".g c #000000",
".h c #000000",
".i c #000000",
".j c #000000",
".k c #000000",
".l c #000000",
".m c #000000",
".n c #000000",
".o c #000000",
".p c #000000",
".q c #000000",
".r c #000000",
".s c #000000",
".t c #000000",
".u c #000000",
".v c #000000",
".w c #000000",
".x c #000000",
".y c #000000",
".z c #000000",
".A c #000000",
".B c #000000",
".C c #000000",
".D c #000000",
".E c #000000",
".F c #000000",
".G c #000000",
".H c #000000",
".I c #000000",
".J c #000000",
".K c #000000",
".L c #000000",
".M c #000000",
".N c #000000",
".O c #000000",
".P c #000000",
".Q c #000000",
".R c #000000",
".S c #000000",
".T c #000000",
".U c #000000",
".V c #000000",
".W c #000000",
".X c #000000",
".Y c #000000",
".Z c #000000",
".0 c #000000",
".1 c #000000",
".2 c #000000",
".3 c #000000",
".4 c #000000",
".5 c #000000",
".6 c #000000",
".7 c #000000",
".8 c #000000",
"#` c #000000",
"#. c #000000",
"## c #000000",
"#a c #000000",
"#b c #000000",
"#c c #000000",
"#d c #000000",
"#e c #000000",
"#f c #000000",
"#g c #000000",
"#h c #000000",
"#i c #000000",
"#j c #000000",
"#k c #000000",
"#l c #000000",
"#m c #000000",
"#n c #000000",
"#o c #000000",
"#p c #000000",
"#q c #000000",
"#r c #000000",
"#s c #000000",
"#t c #000000",
"#u c #000000",
"#v c #000000",
"#w c #000000",
"#x c #000000",
"#y c #000000",
"#z c #000000",
"#A c #000000",
"#B c #000000",
"#C c #000000",
"#D c #000000",
"#E c #000000",
"#F c #000000",
"#G c #000000",
"#H c #000000",
"#I c #000000",
"#J c #000000",
"#K c #000000",
"#L c #000000",
"#M c #000000",
"#N c #000000",
"#O c #000000",
"#P c #000000",
"#Q c #000000",
"#R c #000000",
"#S c #000000",
"#T c #000000",
"#U c #000000",
"#V c #000000",
"#W c #000000",
"#X c #000000",
"#Y c #000000",
"#Z c #000000",
"#0 c #000000",
"#1 c #000000",
"#2 c #000000",
"#3 c #000000",
"#4 c #000000",
"#5 c #000000",
"#6 c #000000",
"#7 c #000000",
"#8 c #000000",
"a` c #000000",
"a. c #000000",
"a# c #000000",
"aa c #000000",
"ab c #000000",
"ac c #000000",
"ad c #000000",
"ae c #000000",
"af c #000000",
"ag c #000000",
"ah c #000000",
"ai c #000000",
"aj c #000000",
"ak c #000000",
"al c #000000",
"am c #000000",
"an c #000000",
"ao c #000000",
"ap c #000000",
"aq c #000000",
"ar c #000000",
"as c #000000",
"at c #000000",
"au c #000000",
"av c #000000",
"aw c #000000",
"ax c #000000",
"ay c #000000",
"az c #000000",
"aA c #000000",
"aB c #000000",
"aC c #000000",
"aD c #000000",
"aE c #000000",
"aF c #000000",
"aG c #000000",
"aH c #000000",
"aI c #000000",
"aJ c #000000",
"aK c #000000",
"aL c #000000",
"aM c #000000",
"aN c #000000",
"aO c #000000",
"aP c #000000",
"aQ c #000000",
"aR c #000000",
"aS c #000000",
"aT c #000000",
"aU c #000000",
"aV c #000000",
"aW c #000000",
"aX c #000000",
"aY c #000000",
"aZ c #000000",
"a0 c #000000",
"a1 c #000000",
"a2 c #000000",
"a3 c #000000",
"a4 c #000000",
"a5 c #000000",
"a6 c #000000",
"a7 c #000000",
"a8 c #000000",
/* pixels */
"`````````````````````````````.`.```````#`a`#```````.`.`.````````````",
"```````````````````````````.`b```c`d`e`f`g`f`h`i`j`.`.``````````````",
"```````````````````````.```b`.`k`l`m`m`g`g`g`n`o`p`b`.`.````````````",
"`````````````````````.```.`b```q`r```````````````c`b`.`.````````````",
"```````````````````````.`b```s`t`j`b`u`.`.`.`.`b`````.``````````````",
"```````````````.```.`b`.```s`v`w```b`.`.`.`.`.`.`.`.`.`.````````````",
"```````````.```.`b`b`````x`y`z```b`.`````````````b`.```b````````````",
"```````.`````.`.`````A`B`C`D```b`.```.`````````.`.`b`.`.````````````",
"`````````.`.`````A`E`F`G`H```b`.`````````````````.`.```.````````````",
"```````.`b```I`J`K`L`M`N```b`.```.```````````````.`.```.````````````",
"`````.`b`.`O`f`P`Q`R`````b`.```.`````````````````.`.```.````````````",
"`````.`.`.`S`T`#`````b`.```.`.`.`````````````````.`.```.````````````",
"```````.`.`.`````u`.```.`b```````.```````````````.`.```.````````````",
"```````.`````b`.```.`b`````.`N`.```.`````````````.`.```.````````````",
"```````.`.`.`.`b`b`````U`V`o`W`N`.`b`````````````.`.```.````````````",
"`````````.`.`.`````c`D`X`Y`E`Z`0`.`b`````````````.`.```.````````````",
"```````.`.`.```1`2`G`3`4`5`````b`.`.`````````````.`.```.````````````",
"```````b`.`#`q`6`7`8.``````u`b`.`.```````````````.`.```.````````````",
"```````.```O`h`M`1`````b`b`.`.`.```.`````````````.`.```.````````````",
"```````.```u`.`````b`b`.`.`.```.`````````````````.`.```.````````````",
"```````````````b`.`.`.```.`.`.`.`````````````````.`.```.````````````",
"```````````.`.```````````````````````````````````.`.```.````````````",
"`````````````````````````````````````````````````.`.```.````````````",
"`````````````````````````````````````````````````.`.```.````````````",
"`````````````````````````````````````````````````.`.```.````````````",
"`````````````````````````````````````````````````.`.```.````````````",
"`````````````````````````````````````````````````.`.```.````````````",
"`````````````````````````````````````````````````.`.```.````````````",
"`````````````````````````````````````````````````.`.```.````````````",
"`````````````````````````````````````````````````.`.```.````````````",
"`````````````````````````````````````````````````.`.```.````````````",
"```````````````````````````.```.`.`.`.`.`.`.`.`.`b`b```b````````````",
"`````````````````````````.`````.`.`````````````.`.`.`.`.````````````",
"`````````````````````````.```.`````b`a`a`a`#`.`````.`.``````````````",
"`````````````````````````.`b`....#`f.a.b.b.b`4`Q`Z`.`b``````````````",
"```````````````````````.`b`b`.`x`g.c.c.c.c.c.d.e`w`.`b`.````````````",
"```````````````````````.`.`.`.`````````````````````.```.````````````",
"```````````````````````````````.`b`b`b`b`b`b`b`b`.```.``````````````",
"`````````````````````````````.```.`.`.`.`.`.`.`.`.``````````````````",
"````````````````````````````````````````````````````````````````````"
};
