/* XPM */
static char *2_xpm[] = {
/* width height num_colors chars_per_pixel */
"    34    40      256            2",
/* colors */
"`` c #ffffff",
"`. c #fefefe",
"`# c #fdfdfd",
"`a c #fcfcfc",
"`b c #fafafa",
"`c c #e0e0e0",
"`d c #c4c4c4",
"`e c #afafaf",
"`f c #a0a0a0",
"`g c #999999",
"`h c #979797",
"`i c #9f9f9f",
"`j c #ababab",
"`k c #bdbdbd",
"`l c #d6d6d6",
"`m c #f0f0f0",
"`n c #f6f6f6",
"`o c #c0c0c0",
"`p c #8f8f8f",
"`q c #797979",
"`r c #7e7e7e",
"`s c #8a8a8a",
"`t c #8e8e8e",
"`u c #929292",
"`v c #949494",
"`w c #838383",
"`x c #777777",
"`y c #828282",
"`z c #a7a7a7",
"`A c #e2e2e2",
"`B c #dcdcdc",
"`C c #8d8d8d",
"`D c #adadad",
"`E c #d5d5d5",
"`F c #ededed",
"`G c #fbfbfb",
"`H c #f3f3f3",
"`I c #dfdfdf",
"`J c #bfbfbf",
"`K c #7d7d7d",
"`L c #b5b5b5",
"`M c #d4d4d4",
"`N c #b0b0b0",
"`O c #8b8b8b",
"`P c #a5a5a5",
"`Q c #f9f9f9",
"`R c #e5e5e5",
"`S c #939393",
"`T c #d2d2d2",
"`U c #a2a2a2",
"`V c #b8b8b8",
"`W c #bcbcbc",
"`X c #d9d9d9",
"`Y c #b6b6b6",
"`Z c #e9e9e9",
"`0 c #d8d8d8",
"`1 c #efefef",
"`2 c #cacaca",
"`3 c #c1c1c1",
"`4 c #f1f1f1",
"`5 c #ebebeb",
"`6 c #f8f8f8",
"`7 c #c9c9c9",
"`8 c #858585",
".` c #848484",
".. c #7f7f7f",
".# c #dbdbdb",
".a c #cbcbcb",
".b c #f2f2f2",
".c c #e7e7e7",
".d c #aaaaaa",
".e c #a6a6a6",
".f c #c6c6c6",
".g c #eaeaea",
".h c #f5f5f5",
".i c #e4e4e4",
".j c #dedede",
".k c #e3e3e3",
".l c #eeeeee",
".m c #cecece",
".n c #7a7a7a",
".o c #747474",
".p c #888888",
".q c #e8e8e8",
".r c #cfcfcf",
".s c #b1b1b1",
".t c #a4a4a4",
".u c #f4f4f4",
".v c #d3d3d3",
".w c #e6e6e6",
".x c #f7f7f7",
".y c #989898",
".z c #969696",
".A c #dadada",
".B c #d7d7d7",
".C c #d0d0d0",
".D c #bbbbbb",
".E c #808080",
".F c #8c8c8c",
".G c #959595",
".H c #818181",
".I c #c8c8c8",
".J c #868686",
".K c #9a9a9a",
".L c #7c7c7c",
".M c #dddddd",
".N c #a8a8a8",
".O c #d1d1d1",
".P c #737373",
".Q c #ececec",
".R c #cccccc",
".S c #919191",
".T c #9b9b9b",
".U c #9d9d9d",
".V c #000000",
".W c #000000",
".X c #000000",
".Y c #000000",
".Z c #000000",
".0 c #000000",
".1 c #000000",
".2 c #000000",
".3 c #000000",
".4 c #000000",
".5 c #000000",
".6 c #000000",
".7 c #000000",
".8 c #000000",
"#` c #000000",
"#. c #000000",
"## c #000000",
"#a c #000000",
"#b c #000000",
"#c c #000000",
"#d c #000000",
"#e c #000000",
"#f c #000000",
"#g c #000000",
"#h c #000000",
"#i c #000000",
"#j c #000000",
"#k c #000000",
"#l c #000000",
"#m c #000000",
"#n c #000000",
"#o c #000000",
"#p c #000000",
"#q c #000000",
"#r c #000000",
"#s c #000000",
"#t c #000000",
"#u c #000000",
"#v c #000000",
"#w c #000000",
"#x c #000000",
"#y c #000000",
"#z c #000000",
"#A c #000000",
"#B c #000000",
"#C c #000000",
"#D c #000000",
"#E c #000000",
"#F c #000000",
"#G c #000000",
"#H c #000000",
"#I c #000000",
"#J c #000000",
"#K c #000000",
"#L c #000000",
"#M c #000000",
"#N c #000000",
"#O c #000000",
"#P c #000000",
"#Q c #000000",
"#R c #000000",
"#S c #000000",
"#T c #000000",
"#U c #000000",
"#V c #000000",
"#W c #000000",
"#X c #000000",
"#Y c #000000",
"#Z c #000000",
"#0 c #000000",
"#1 c #000000",
"#2 c #000000",
"#3 c #000000",
"#4 c #000000",
"#5 c #000000",
"#6 c #000000",
"#7 c #000000",
"#8 c #000000",
"a` c #000000",
"a. c #000000",
"a# c #000000",
"aa c #000000",
"ab c #000000",
"ac c #000000",
"ad c #000000",
"ae c #000000",
"af c #000000",
"ag c #000000",
"ah c #000000",
"ai c #000000",
"aj c #000000",
"ak c #000000",
"al c #000000",
"am c #000000",
"an c #000000",
"ao c #000000",
"ap c #000000",
"aq c #000000",
"ar c #000000",
"as c #000000",
"at c #000000",
"au c #000000",
"av c #000000",
"aw c #000000",
"ax c #000000",
"ay c #000000",
"az c #000000",
"aA c #000000",
"aB c #000000",
"aC c #000000",
"aD c #000000",
"aE c #000000",
"aF c #000000",
"aG c #000000",
"aH c #000000",
"aI c #000000",
"aJ c #000000",
"aK c #000000",
"aL c #000000",
"aM c #000000",
"aN c #000000",
"aO c #000000",
"aP c #000000",
"aQ c #000000",
"aR c #000000",
"aS c #000000",
"aT c #000000",
"aU c #000000",
"aV c #000000",
"aW c #000000",
"aX c #000000",
"aY c #000000",
"aZ c #000000",
"a0 c #000000",
"a1 c #000000",
"a2 c #000000",
"a3 c #000000",
"a4 c #000000",
"a5 c #000000",
"a6 c #000000",
"a7 c #000000",
"a8 c #000000",
/* pixels */
"`````````````.```.`#```````````.`a`a`.```````````.`#`.```.``````````",
"`````````.`````#`````b`c`d`e`f`g`h`h`g`i`j`k`l`m`````#`.````````````",
"```````````.`#```n`o`p`q`r`s`t`u`v`v`u`p`s`w`x`y`z`A`````#`````.````",
"`````.```.`#```B`C`y`D`E`F`b`````````````G`H`I`J`u`K`L`b```.````````",
"```````.`#```M`w`N`H```````````.`.`.`.`````````````M`O`P`Q`.`.`.````",
"`````.`#```R`S`T`````a`#`.`.`.`.`#`#`#`.`.`.`#`#`.```n`U`V```.`.````",
"`````.`.`G`W`X```a`#```````.`.```````````.```.```.`G```b`Y`A```#`.``",
"`````#```Z`0```#`.```.`.`.`.```1`2`3`X`a```.`````.`.`a```4`l`#`.`#``",
"```.`.`.`5`6`.`#```````.`.```7`8`y.`..`g`5```.`.`````.`#```1`Q```#``",
"`.`.`.`#`Q`#`#`#`#`#`#`a``.#`u.a.b`6.c.d.e`Q`.`#```````.`.`#`#```.``",
"```````.`.```````````````..f.g```````````E`F```#`````.```.`````.````",
"`.```.`.``.h.i.j.k.g.l.g.m`0```a`#`.`a`#```a`.`.```````.```.`.`.`.``",
"`.`.`.`.`T`S.n.o`x`K`y`y.p.q`.`a`.```.`.```````````````.```.`.`.`.``",
"```.```.`5`B`0.r.f`W.s.t`f.u`.`.`.`.`````G`.`.`.`````````.```.`.`.`.",
"`.`````.```````````````````.```.`#```#.v.w```#`.`.`````.```.`.``````",
"```````.`.`#`#`a`a`#`#`#`#`.`.`#``.x`e`D`Q`#`.`````.`#```b.u`.`.```.",
"`````````````````````.`````.`#```5.y.z`4```#`.`.`.`#`.`G.A.h```#```.",
"```````````````.`.`.`````#`.``.B`8`i.x```#```````#`.`.`7.C```.`.```.",
"`````````````````.```.`#```#.D`K`L`````#`````.`#```.`o.e`n`.`#`.````",
"```````````````````.`#```4`f.E.v```.`#`````.`#```a`L.F.q```#`.`.````",
"`````````````````.`#```A.F.G`F```a`.`````.`#```4`U`8.i```a```.`.````",
"```````````.```.`#```M`y`D`a```a`.```.`#`````B`O`t`5```a`.`.````````",
"`````````.```.`.```2.H`d```.`#`````.`#```b`W.n`P`6```a`.````````````",
"```````````.`.``.I.J.v```a`.`````.`.```Z.K.L.f`````#`.`.`.``````````",
"`````.```.`#``.r.F.M```a`.`````.`.`a.r`y`v.q```G`a`#`#`#`#`.```.`.`.",
"```````.`#```I.z`I```a`.```.`.`#``.q.K`L`a```````````````````.``````",
"`````.`#`.`H.N`0```a`.```.```.`.`.`Q`6`````G`Z`B`E.v`T.v`I`6```.```.",
"`````.`.`..I.O```a`.```````````.`.```m.a.e`O`q.P.P.P.P.P`x.y.c`.`#`.",
"`````#``.Q.R`.`#`#```.`````````.`.`#.c.v`T`E`X.A.A.A.A.A`0`E.i`#`.`.",
"```.`.`..M`4```#`.`.```````````````````````````````````````````.````",
"```#```Q`Z```.`.```````````````````.`.`#`#`#`#`#`#`#`#`#`#`#`.`.`.`.",
"```#`..x`6`.`#`.`.`.`.`.`.`.`.`.`.`.`.`.`.`.`.`.`.`.`.`.`.`.`.`.```.",
"`.`.```a`a`#`.`````````````````````````````````````````````.`.`.`.``",
"`````.`````````b`b`b`b`b`b`b`b`b`b`b`b`b`b`b`b`b`b`b`b`G`.`````.`.``",
"`.`.`.`G`0`D.z.S.S.S.S.S.S.S.S.S.S.S.S.S.S.S.S.S.S.S.S.S.T`o.h`.`.`.",
"`.`#```c`f.G`h.y.y.y.y.y.y.y.y.y.y.y.y.y.y.y.y.y.y.y.y.y`h.U.c`.`#`.",
"`.```.`.```````````````````````````````````````````````````````.```.",
"`.```.`.`.`#`#`#`#`#`#`#`#`#`#`#`#`#`#`#`#`#`#`#`#`#`#`#`#`#`.`.```.",
"`````````.`.`.`.`.`.`.`.`.`.`.`.`.`.`.`.`.`.`.`.`.`.`.`.````````````",
"`.```.`.`````````````````````````````````````````````````.`.`.`.```."
};
