/* XPM */
static char *3_xpm[] = {
/* width height num_colors chars_per_pixel */
"    34    40      256            2",
/* colors */
"`` c #ffffff",
"`. c #fefefe",
"`# c #fdfdfd",
"`a c #fcfcfc",
"`b c #e9e9e9",
"`c c #cdcdcd",
"`d c #b4b4b4",
"`e c #a3a3a3",
"`f c #9a9a9a",
"`g c #979797",
"`h c #b2b2b2",
"`i c #c9c9c9",
"`j c #e4e4e4",
"`k c #d5d5d5",
"`l c #9c9c9c",
"`m c #7e7e7e",
"`n c #7a7a7a",
"`o c #888888",
"`p c #8e8e8e",
"`q c #929292",
"`r c #949494",
"`s c #919191",
"`t c #8d8d8d",
"`u c #898989",
"`v c #7c7c7c",
"`w c #c6c6c6",
"`x c #f9f9f9",
"`y c #f1f1f1",
"`z c #7d7d7d",
"`A c #c8c8c8",
"`B c #e7e7e7",
"`C c #f8f8f8",
"`D c #eaeaea",
"`E c #d0d0d0",
"`F c #a7a7a7",
"`G c #808080",
"`H c #939393",
"`I c #e5e5e5",
"`J c #ececec",
"`K c #e1e1e1",
"`L c #efefef",
"`M c #aaaaaa",
"`N c #e2e2e2",
"`O c #f7f7f7",
"`P c #9f9f9f",
"`Q c #afafaf",
"`R c #a4a4a4",
"`S c #f6f6f6",
"`T c #c4c4c4",
"`U c #bbbbbb",
"`V c #d1d1d1",
"`W c #d7d7d7",
"`X c #c7c7c7",
"`Y c #fbfbfb",
"`Z c #d6d6d6",
"`0 c #c0c0c0",
"`1 c #cccccc",
"`2 c #f2f2f2",
"`3 c #e6e6e6",
"`4 c #e8e8e8",
"`5 c #989898",
"`6 c #858585",
"`7 c #828282",
"`8 c #8c8c8c",
".` c #dadada",
".. c #a6a6a6",
".# c #b1b1b1",
".a c #f3f3f3",
".b c #cfcfcf",
".c c #c2c2c2",
".d c #cbcbcb",
".e c #dedede",
".f c #b7b7b7",
".g c #c3c3c3",
".h c #f5f5f5",
".i c #fafafa",
".j c #eeeeee",
".k c #8b8b8b",
".l c #7b7b7b",
".m c #797979",
".n c #787878",
".o c #878787",
".p c #f4f4f4",
".q c #9d9d9d",
".r c #aeaeae",
".s c #b9b9b9",
".t c #818181",
".u c #727272",
".v c #b3b3b3",
".w c #b6b6b6",
".x c #ededed",
".y c #a9a9a9",
".z c #c1c1c1",
".A c #d8d8d8",
".B c #acacac",
".C c #bababa",
".D c #8f8f8f",
".E c #838383",
".F c #dfdfdf",
".G c #d2d2d2",
".H c #bcbcbc",
".I c #9e9e9e",
".J c #f0f0f0",
".K c #adadad",
".L c #909090",
".M c #a8a8a8",
".N c #969696",
".O c #a5a5a5",
".P c #dbdbdb",
".Q c #d4d4d4",
".R c #d3d3d3",
".S c #e0e0e0",
".T c #7f7f7f",
".U c #848484",
".V c #d9d9d9",
".W c #dcdcdc",
".X c #bfbfbf",
".Y c #8a8a8a",
".Z c #bebebe",
".0 c #747474",
".1 c #e3e3e3",
".2 c #9b9b9b",
".3 c #757575",
".4 c #a2a2a2",
".5 c #959595",
".6 c #737373",
".7 c #b8b8b8",
".8 c #000000",
"#` c #000000",
"#. c #000000",
"## c #000000",
"#a c #000000",
"#b c #000000",
"#c c #000000",
"#d c #000000",
"#e c #000000",
"#f c #000000",
"#g c #000000",
"#h c #000000",
"#i c #000000",
"#j c #000000",
"#k c #000000",
"#l c #000000",
"#m c #000000",
"#n c #000000",
"#o c #000000",
"#p c #000000",
"#q c #000000",
"#r c #000000",
"#s c #000000",
"#t c #000000",
"#u c #000000",
"#v c #000000",
"#w c #000000",
"#x c #000000",
"#y c #000000",
"#z c #000000",
"#A c #000000",
"#B c #000000",
"#C c #000000",
"#D c #000000",
"#E c #000000",
"#F c #000000",
"#G c #000000",
"#H c #000000",
"#I c #000000",
"#J c #000000",
"#K c #000000",
"#L c #000000",
"#M c #000000",
"#N c #000000",
"#O c #000000",
"#P c #000000",
"#Q c #000000",
"#R c #000000",
"#S c #000000",
"#T c #000000",
"#U c #000000",
"#V c #000000",
"#W c #000000",
"#X c #000000",
"#Y c #000000",
"#Z c #000000",
"#0 c #000000",
"#1 c #000000",
"#2 c #000000",
"#3 c #000000",
"#4 c #000000",
"#5 c #000000",
"#6 c #000000",
"#7 c #000000",
"#8 c #000000",
"a` c #000000",
"a. c #000000",
"a# c #000000",
"aa c #000000",
"ab c #000000",
"ac c #000000",
"ad c #000000",
"ae c #000000",
"af c #000000",
"ag c #000000",
"ah c #000000",
"ai c #000000",
"aj c #000000",
"ak c #000000",
"al c #000000",
"am c #000000",
"an c #000000",
"ao c #000000",
"ap c #000000",
"aq c #000000",
"ar c #000000",
"as c #000000",
"at c #000000",
"au c #000000",
"av c #000000",
"aw c #000000",
"ax c #000000",
"ay c #000000",
"az c #000000",
"aA c #000000",
"aB c #000000",
"aC c #000000",
"aD c #000000",
"aE c #000000",
"aF c #000000",
"aG c #000000",
"aH c #000000",
"aI c #000000",
"aJ c #000000",
"aK c #000000",
"aL c #000000",
"aM c #000000",
"aN c #000000",
"aO c #000000",
"aP c #000000",
"aQ c #000000",
"aR c #000000",
"aS c #000000",
"aT c #000000",
"aU c #000000",
"aV c #000000",
"aW c #000000",
"aX c #000000",
"aY c #000000",
"aZ c #000000",
"a0 c #000000",
"a1 c #000000",
"a2 c #000000",
"a3 c #000000",
"a4 c #000000",
"a5 c #000000",
"a6 c #000000",
"a7 c #000000",
"a8 c #000000",
/* pixels */
"`````````````.```.`#`.`````````.`a`a`````````````#`.```.````````````",
"`````````.`````.`.`````b`c`d`e`f`g`g`f`e`h`i`j`a`````#`````.````````",
"```````.`````#`````k`l`m`n`o`p`q`r`r`s`t`u`v`n`q`w`x```#`.```.``````",
"`````.```.`#```y`e`z`f`A`B`C`````````````C`D`E`F`G`H`I```#`.```.````",
"```````.`#```J`q`g`K```````````.`.`.`.```````````L`M`u`N```.`.``````",
"`````.`#`.`O`P`Q`````#`#`#`.`.`#`#`#`.`.`.`#`#`#`````w`R`S`.`#`.````",
"`````#`.```T`U```.`a`.`````.```````````.`````````#`#```V`W```#`.````",
"`````.```J`X`#`.`#`````.`#```Y`Z`0`1`2```.`.```.```#`#`#`3`#`.`#```.",
"`````#```4`y`#`a`#`#`#`a```D`5`G`6`7`8.````.`.`````.`.`.`a`#```.````",
"`````.`.`````````````````x...#`D`C.a`w`h`Y`.`#```````.`.`````.`.```.",
"`.```.`.`a`b.b.c.d.e`4`N.f.g`````.````.h.i```.`````.```.`.```.`.```.",
"`.`.`#`..j`h.k.l.m.n.l.l.o.p`#`Y`````````.```````````.`````.`.`.```.",
"```.`.`.`.``.i`y.e`i.f.q.r```.``.j`W`c.j```#`.```.`.```.`x`.`.`.````",
"```````.`.`.```````````````..i.s.t.u`f`y`.`#```.`.``.p`V`y```#`.````",
"```.`.`.```.`.`.`#`a`a`.`#`.`D.v.w`k`a```.```.`#``.x.y.z`.`#`#``````",
"```````````````````````#`.`.`C`````````.```.`.`#`.`N`T`O`.`.`.`.````",
"`````````````````````.`.`.`.`.`a`#`#`.```.```.`.```.```````.```.`.``",
"`````````````````````.`````.`.`.`.`.`#`.`.`.```.`.`.`B`Z`O```.`.````",
"`````````````````````.```.`.`````````````.`````.`.`..a`d`l.j```#`.``",
"`````````````````````.`.`.`.`a.A.v.B`A.p```.`.`````.````.c.C`#`.`#``",
"`````````````````````.`#`#```i`o`p.D.E`8.F```#`.`.```#`#``.G.x```.``",
"`````````````````````.`.`.`.`4.x`````2.H.I.a`.`#```.```#`.`C.J`.`#``",
"```````````.`.`.`.`#`#`.`.```````.`.````.``N```#`.`````.`.`.`.```.``",
"`````````.`.```````````````.`.`.`.`.`#`#```O`.`.`.`````````.```.`.``",
"`.`````.`````Y.p`D.e.A`N`a```.`.`````.`.`#```.`.```````.```.`.`.`.``",
"`.`.`.```j.K.L`7`v`v`v`7.M`y`.`a`.`.`.`#`.```.```.```````````.`.`.``",
"```#`.`C.r.N.O.r.H`V.P`B`k.s`.```.```````.`.```.`````.```.`.```.`.`.",
"```.```#.i````````````````.B.s.x`a`a.J.Q.R`#`.`#```.```.`.```.`.`.``",
"```.`.```````#`#`a`#`#`a`..S.T`G`g`f.U.T.V```#`.`.```.`#```C`#`.`.`.",
"```.`.```C.h```#`.`````.`#```K`e.k.o`l.A```#`.`````.`#``.J`4`.`#```.",
"`````#`.`C`T`j```#`#`````.`.````.i`x`````.`.`````.`a```y`w.a```.````",
"```.`.`#``.e.q.W`````#`#`.`.`#`#`````.`#`.`.`.`#`````J..`c```#`.```.",
"```````.`#``.X.T.H.h```````.`.`#`#`#`#`.`.```````Y.b.o`F`a`#`.`.````",
"`````.```.`#``.c.n.Y.Z`j`C`````````````````a`J.d`g.0`M`a`.`.```.````",
"```````````.`#``.1.2.3`n.D.4.v.Z`T`w.c.C`M.5`G.6`8`V`````.``````````",
"`````````.```.`#`````N.7`g`o.T.n.3.0.3`n.E.L.K`Z`a```.`.```.```.````",
"`````````.`.`.`.`#`.```````C`L`4`I`j`I`D.a`````````#`.```.``````````",
"`````````````````.`.`#`#`.`````````````````.`#`#`.```.``````````````",
"`````````````````````````.`.`.`#`#`#`#`#`.`.```.````````````````````",
"`````````````````````````````.``````````````````````````````````````"
};
