/* XPM */
static char *3_xpm[] = {
/* width height num_colors chars_per_pixel */
"    34    40      2            2",
/* colors */
"`` c #ffffffff",
"`. c #ffffff",
/* pixels */
"````````````````````````````````````````````````````````````````````",
"````````````````````````````````````````````````````````````````````",
"````````````````````````````````````````````````````````````````````",
"`````````````````````````.`.`.`.`.`.`.`.`.`.````````````````````````",
"```````````````````.`.`.`.`.`.`.`.`.`.`.`.`.`.`.`.``````````````````",
"`````````````````.`.`.`.`.`.`.`.`.`.`.`.`.`.`.`.`.`.````````````````",
"```````````````.`.`.`.`.`.`.`.`.`.`.`.`.`.`.`.`.`.`.`.``````````````",
"`````````````.`.`.`.`.`.`.`.`.`.`.`.`.`.`.`.`.`.`.`.`.`.````````````",
"```````````.`.`.`.`.`.`.`.`.`.`.`.`.`.`.`.`.`.`.`.`.`.`.````````````",
"```````````.`.`.`.`.`.`.`.`.`.`````````.`.`.`.`.`.`.`.`.`.``````````",
"`````````.`.`.`.`.`.`.`.`.`.`````````````.`.`.`.`.`.`.`.`.``````````",
"`````````.`.`.`.`.`.`.`.`.```````````````.`.`.`.`.`.`.`.`.``````````",
"`````````````````````.`.`.```````````````.`.`.`.`.`.`.`.`.``````````",
"`````````````````````````````````````````.`.`.`.`.`.`.`.`.``````````",
"```````````````````````````````````````.`.`.`.`.`.`.`.`.````````````",
"`````````````````````````````````````.`.`.`.`.`.`.`.`.`.````````````",
"```````````````````````````````.`.`.`.`.`.`.`.`.`.`.`.``````````````",
"```````````````````````````````.`.`.`.`.`.`.`.`.`.`.````````````````",
"```````````````````````````````.`.`.`.`.`.`.`.`.`.``````````````````",
"```````````````````````````````.`.`.`.`.`.`.`.`.`.`.`.``````````````",
"```````````````````````````````.`.`.`.`.`.`.`.`.`.`.`.`.`.``````````",
"```````````````````````````````.`.`.`.`.`.`.`.`.`.`.`.`.`.`.````````",
"`````````````````````````````````````````.`.`.`.`.`.`.`.`.`.````````",
"```````````````````````````````````````````.`.`.`.`.`.`.`.`.`.``````",
"`````````````````````````````````````````````.`.`.`.`.`.`.`.`.``````",
"`````````````````````````````````````````````.`.`.`.`.`.`.`.`.``````",
"`````````````````````````````````````````````.`.`.`.`.`.`.`.`.``````",
"`````````````````.`.`.`.`.```````````````````.`.`.`.`.`.`.`.`.``````",
"`````````.`.`.`.`.`.`.`.`.```````````````````.`.`.`.`.`.`.`.`.``````",
"```````````.`.`.`.`.`.`.`.`.```````````````.`.`.`.`.`.`.`.`.````````",
"```````````.`.`.`.`.`.`.`.`.`.```````````.`.`.`.`.`.`.`.`.`.````````",
"`````````````.`.`.`.`.`.`.`.`.`.`.`.`.`.`.`.`.`.`.`.`.`.`.`.````````",
"`````````````.`.`.`.`.`.`.`.`.`.`.`.`.`.`.`.`.`.`.`.`.`.`.``````````",
"```````````````.`.`.`.`.`.`.`.`.`.`.`.`.`.`.`.`.`.`.`.`.````````````",
"`````````````````.`.`.`.`.`.`.`.`.`.`.`.`.`.`.`.`.`.`.``````````````",
"`````````````````````.`.`.`.`.`.`.`.`.`.`.`.`.`.`.``````````````````",
"```````````````````````````.`.`.`.`.`.`.`.`.`.``````````````````````",
"````````````````````````````````````````````````````````````````````",
"````````````````````````````````````````````````````````````````````",
"````````````````````````````````````````````````````````````````````"
};
