/* XPM */
static char *4_xpm[] = {
/* width height num_colors chars_per_pixel */
"    34    40      256            2",
/* colors */
"`` c #ffffff",
"`. c #fefefe",
"`# c #fcfcfc",
"`a c #fafafa",
"`b c #fbfbfb",
"`c c #fdfdfd",
"`d c #cdcdcd",
"`e c #a4a4a4",
"`f c #969696",
"`g c #959595",
"`h c #949494",
"`i c #a2a2a2",
"`j c #f9f9f9",
"`k c #adadad",
"`l c #909090",
"`m c #939393",
"`n c #9d9d9d",
"`o c #dddddd",
"`p c #b7b7b7",
"`q c #9f9f9f",
"`r c #f5f5f5",
"`s c #cecece",
"`t c #9e9e9e",
"`u c #f3f3f3",
"`v c #dcdcdc",
"`w c #e9e9e9",
"`x c #eaeaea",
"`y c #dbdbdb",
"`z c #a5a5a5",
"`A c #cbcbcb",
"`B c #b0b0b0",
"`C c #bcbcbc",
"`D c #bebebe",
"`E c #acacac",
"`F c #e8e8e8",
"`G c #f0f0f0",
"`H c #f4f4f4",
"`I c #c2c2c2",
"`J c #d4d4d4",
"`K c #afafaf",
"`L c #bbbbbb",
"`M c #b8b8b8",
"`N c #aeaeae",
"`O c #a0a0a0",
"`P c #cccccc",
"`Q c #a3a3a3",
"`R c #f6f6f6",
"`S c #d1d1d1",
"`T c #999999",
"`U c #ededed",
"`V c #dedede",
"`W c #979797",
"`X c #e0e0e0",
"`Y c #e6e6e6",
"`Z c #f8f8f8",
"`0 c #b5b5b5",
"`1 c #c6c6c6",
"`2 c #c0c0c0",
"`3 c #c1c1c1",
"`4 c #f2f2f2",
"`5 c #d3d3d3",
"`6 c #dfdfdf",
"`7 c #929292",
"`8 c #818181",
".` c #878787",
".. c #a8a8a8",
".# c #e4e4e4",
".a c #f1f1f1",
".b c #b1b1b1",
".c c #ebebeb",
".d c #d8d8d8",
".e c #ececec",
".f c #bababa",
".g c #c5c5c5",
".h c #e7e7e7",
".i c #a6a6a6",
".j c #7c7c7c",
".k c #7a7a7a",
".l c #7b7b7b",
".m c #7f7f7f",
".n c #8d8d8d",
".o c #efefef",
".p c #eeeeee",
".q c #989898",
".r c #919191",
".s c #9b9b9b",
".t c #f7f7f7",
".u c #d9d9d9",
".v c #000000",
".w c #000000",
".x c #000000",
".y c #000000",
".z c #000000",
".A c #000000",
".B c #000000",
".C c #000000",
".D c #000000",
".E c #000000",
".F c #000000",
".G c #000000",
".H c #000000",
".I c #000000",
".J c #000000",
".K c #000000",
".L c #000000",
".M c #000000",
".N c #000000",
".O c #000000",
".P c #000000",
".Q c #000000",
".R c #000000",
".S c #000000",
".T c #000000",
".U c #000000",
".V c #000000",
".W c #000000",
".X c #000000",
".Y c #000000",
".Z c #000000",
".0 c #000000",
".1 c #000000",
".2 c #000000",
".3 c #000000",
".4 c #000000",
".5 c #000000",
".6 c #000000",
".7 c #000000",
".8 c #000000",
"#` c #000000",
"#. c #000000",
"## c #000000",
"#a c #000000",
"#b c #000000",
"#c c #000000",
"#d c #000000",
"#e c #000000",
"#f c #000000",
"#g c #000000",
"#h c #000000",
"#i c #000000",
"#j c #000000",
"#k c #000000",
"#l c #000000",
"#m c #000000",
"#n c #000000",
"#o c #000000",
"#p c #000000",
"#q c #000000",
"#r c #000000",
"#s c #000000",
"#t c #000000",
"#u c #000000",
"#v c #000000",
"#w c #000000",
"#x c #000000",
"#y c #000000",
"#z c #000000",
"#A c #000000",
"#B c #000000",
"#C c #000000",
"#D c #000000",
"#E c #000000",
"#F c #000000",
"#G c #000000",
"#H c #000000",
"#I c #000000",
"#J c #000000",
"#K c #000000",
"#L c #000000",
"#M c #000000",
"#N c #000000",
"#O c #000000",
"#P c #000000",
"#Q c #000000",
"#R c #000000",
"#S c #000000",
"#T c #000000",
"#U c #000000",
"#V c #000000",
"#W c #000000",
"#X c #000000",
"#Y c #000000",
"#Z c #000000",
"#0 c #000000",
"#1 c #000000",
"#2 c #000000",
"#3 c #000000",
"#4 c #000000",
"#5 c #000000",
"#6 c #000000",
"#7 c #000000",
"#8 c #000000",
"a` c #000000",
"a. c #000000",
"a# c #000000",
"aa c #000000",
"ab c #000000",
"ac c #000000",
"ad c #000000",
"ae c #000000",
"af c #000000",
"ag c #000000",
"ah c #000000",
"ai c #000000",
"aj c #000000",
"ak c #000000",
"al c #000000",
"am c #000000",
"an c #000000",
"ao c #000000",
"ap c #000000",
"aq c #000000",
"ar c #000000",
"as c #000000",
"at c #000000",
"au c #000000",
"av c #000000",
"aw c #000000",
"ax c #000000",
"ay c #000000",
"az c #000000",
"aA c #000000",
"aB c #000000",
"aC c #000000",
"aD c #000000",
"aE c #000000",
"aF c #000000",
"aG c #000000",
"aH c #000000",
"aI c #000000",
"aJ c #000000",
"aK c #000000",
"aL c #000000",
"aM c #000000",
"aN c #000000",
"aO c #000000",
"aP c #000000",
"aQ c #000000",
"aR c #000000",
"aS c #000000",
"aT c #000000",
"aU c #000000",
"aV c #000000",
"aW c #000000",
"aX c #000000",
"aY c #000000",
"aZ c #000000",
"a0 c #000000",
"a1 c #000000",
"a2 c #000000",
"a3 c #000000",
"a4 c #000000",
"a5 c #000000",
"a6 c #000000",
"a7 c #000000",
"a8 c #000000",
/* pixels */
"```````````````````````````````````.`.`````#`a`a`b```````.```.``````",
"```````````````````````````````.`.```c`d`e`f`g`h`g`i`d`b`.`.````````",
"```````````````````````````.`.`c`.`j`k`l`m`m`h`h`h`m`n`o`.`c`.`.````",
"`````````````````````````.```c`c```p`q`#```````````````r`.`.`.``````",
"```````````````````````````.`c```s`t`u```#`.`.`.`.`.`c```.`.```.````",
"`````````````````````.```.`c```v`q`w```c`.`.`.`.`.`.`.`.`.`.`.`.````",
"```````````````````````.`c```x`t`y```#`.```````````````.````````````",
"```````````````````.`.`c```u`z`A```#`.```.```````````.```.`.```.````",
"`````````````````````c`.`b`B`C```#`.````````````````````````````````",
"```````````````````.`.```D`E`#`c`.``````````````````````````````````",
"`````````````.`.`.`c```d`e`r`.`c```.`.`.```.````````````````````````",
"```````````````.`c```v`n`x```c```.```````.``````````````````````````",
"`````````````.`c```F`q`y```c`.`.```.`G`b```.````````````````````````",
"```````.`````c```H`z`d```#`.`c`.`j`I`J`b`.`.````````````````````````",
"```````````.`.`b`K`L```#`.`.`.`#`M`B`b`#`.``````````````````````````",
"```````.`.`.`.`D`N`c`c`c`.`c```I`O`r`.`c````````````````````````````",
"```.```c`c```P`Q`R```c`.`c```S`T`U```c``````````````````````````````",
"`````.`c```y`t`w```c`.`.```V`W`X```#`.```.``````````````````````````",
"```.`c```F`q`o```#`.`.```Y`T`S```b`c`.`.`.`.```````.```.`.`.`.```.`.",
"`.`c```u`z`A```#`.`c`.`Z`0`1```#```````.```````````````.`````.`.````",
"`.`.`.`2`3```c`.```.`.`#`H```````R`R`.```.`.```````.`.```.`b`````.`.",
"`c```4`5`.`.`.```.```.```#`6`0`7`8.`..`G`.`c`````.`c`..#`t`l`K.a`.`c",
"`.`.`a`c```.```.```.`.`.`X`M`E`K.b`B`B.c```.`````.`c```V`k`B`B.d`c`.",
"`.`.```.`.`````````````````````````````````````````````````````b`.`.",
"`.`.`.`.```.```````.`.`.`.`c`#`#`#`#`#`.```.`````.`.```.`#`#`#`.```.",
"`````.```.`.`.`.`.`.`.`.`.`.`.`.`.`.```````````````````````.```.`.``",
"```````.`c`c`.`c`c`c`c`c`c`c`c`.`c`c`.`.```.```````.```.`c`c`.`c`.``",
"`.`.`.`````````````````````````````````.`````.```````.```````````.`.",
"`.`c`..e`A.f`p`M`M`M`M`M`M`M`M`p`M.g.h```.`.```````.`.`.`6`d`X`b`.`.",
"`c`.`#.i.j.k.l.l.l.l.l.l.l.l.l.l.k.l`l`v`.`c`.```.`c`.`A.`.m.n.#```c",
"`.```c.o.o.a.a.a.a.a.a.a.a.a.a.a.a.a`U`F`c`.`.```.```a`Y.p`G`U`Z`.`.",
"```.`````````````````````````````````````.`.`.`.`.`.`.```````````.``",
"`.`.`.`.`.`.`.`.`.`.`.`.`.`.`.`c`.`c`c`.`.```````````.`.`c`.`.`.```.",
"```````````````````````````````.`.`.`.`````c`b`a`b`.`````.`````.`.``",
"```````````````````````````````.`.`c`..p`p.q.r.r.r.s`3.t`.`.`.`.````",
"```````````````````````````````.`.`c`..u`W`W.q.q.q`f`q`x`.`c`.`.````",
"`````````````````````````````````.```.```````````````````.```.``````",
"```````````````````````````````.```.```.`c`c`c`c`c`#`c`.`.```.``````",
"`````````````````````````````````````.```.`.`.`.`.`.`.``````````````",
"````````````````````````````````````````````````````````````````````"
};
