/* XPM */
static char *5_xpm[] = {
/* width height num_colors chars_per_pixel */
"    34    40      256            2",
/* colors */
"`` c #ffffff",
"`. c #fefefe",
"`# c #f0f0f0",
"`a c #d5d5d5",
"`b c #cccccc",
"`c c #cbcbcb",
"`d c #cfcfcf",
"`e c #e2e2e2",
"`f c #fcfcfc",
"`g c #d2d2d2",
"`h c #888888",
"`i c #767676",
"`j c #737373",
"`k c #747474",
"`l c #7a7a7a",
"`m c #adadad",
"`n c #f7f7f7",
"`o c #fdfdfd",
"`p c #f6f6f6",
"`q c #d3d3d3",
"`r c #dbdbdb",
"`s c #e0e0e0",
"`t c #e1e1e1",
"`u c #dedede",
"`v c #dcdcdc",
"`w c #f9f9f9",
"`x c #fafafa",
"`y c #efefef",
"`z c #b5b5b5",
"`A c #959595",
"`B c #8d8d8d",
"`C c #8e8e8e",
"`D c #8f8f8f",
"`E c #a0a0a0",
"`F c #f8f8f8",
"`G c #bebebe",
"`H c #9c9c9c",
"`I c #9d9d9d",
"`J c #999999",
"`K c #b2b2b2",
"`L c #fbfbfb",
"`M c #f5f5f5",
"`N c #eeeeee",
"`O c #ededed",
"`P c #f2f2f2",
"`Q c #bbbbbb",
"`R c #a3a3a3",
"`S c #a7a7a7",
"`T c #a6a6a6",
"`U c #a4a4a4",
"`V c #b4b4b4",
"`W c #dfdfdf",
"`X c #f4f4f4",
"`Y c #d1d1d1",
"`Z c #7f7f7f",
"`0 c #e7e7e7",
"`1 c #989898",
"`2 c #969696",
"`3 c #f1f1f1",
"`4 c #acacac",
"`5 c #a9a9a9",
"`6 c #b9b9b9",
"`7 c #bcbcbc",
"`8 c #d9d9d9",
".` c #cecece",
".. c #e6e6e6",
".# c #eaeaea",
".a c #e8e8e8",
".b c #868686",
".c c #7d7d7d",
".d c #848484",
".e c #838383",
".f c #7e7e7e",
".g c #bdbdbd",
".h c #7c7c7c",
".i c #919191",
".j c #e4e4e4",
".k c #a8a8a8",
".l c #9e9e9e",
".m c #e5e5e5",
".n c #d6d6d6",
".o c #bababa",
".p c #8b8b8b",
".q c #e9e9e9",
".r c #cdcdcd",
".s c #f3f3f3",
".t c #878787",
".u c #858585",
".v c #b0b0b0",
".w c #9f9f9f",
".x c #c6c6c6",
".y c #dddddd",
".z c #b8b8b8",
".A c #a5a5a5",
".B c #d4d4d4",
".C c #d0d0d0",
".D c #9a9a9a",
".E c #9b9b9b",
".F c #ebebeb",
".G c #bfbfbf",
".H c #c4c4c4",
".I c #e3e3e3",
".J c #b7b7b7",
".K c #b6b6b6",
".L c #c0c0c0",
".M c #787878",
".N c #898989",
".O c #cacaca",
".P c #797979",
".Q c #a1a1a1",
".R c #b3b3b3",
".S c #c5c5c5",
".T c #c1c1c1",
".U c #979797",
".V c #ececec",
".W c #000000",
".X c #000000",
".Y c #000000",
".Z c #000000",
".0 c #000000",
".1 c #000000",
".2 c #000000",
".3 c #000000",
".4 c #000000",
".5 c #000000",
".6 c #000000",
".7 c #000000",
".8 c #000000",
"#` c #000000",
"#. c #000000",
"## c #000000",
"#a c #000000",
"#b c #000000",
"#c c #000000",
"#d c #000000",
"#e c #000000",
"#f c #000000",
"#g c #000000",
"#h c #000000",
"#i c #000000",
"#j c #000000",
"#k c #000000",
"#l c #000000",
"#m c #000000",
"#n c #000000",
"#o c #000000",
"#p c #000000",
"#q c #000000",
"#r c #000000",
"#s c #000000",
"#t c #000000",
"#u c #000000",
"#v c #000000",
"#w c #000000",
"#x c #000000",
"#y c #000000",
"#z c #000000",
"#A c #000000",
"#B c #000000",
"#C c #000000",
"#D c #000000",
"#E c #000000",
"#F c #000000",
"#G c #000000",
"#H c #000000",
"#I c #000000",
"#J c #000000",
"#K c #000000",
"#L c #000000",
"#M c #000000",
"#N c #000000",
"#O c #000000",
"#P c #000000",
"#Q c #000000",
"#R c #000000",
"#S c #000000",
"#T c #000000",
"#U c #000000",
"#V c #000000",
"#W c #000000",
"#X c #000000",
"#Y c #000000",
"#Z c #000000",
"#0 c #000000",
"#1 c #000000",
"#2 c #000000",
"#3 c #000000",
"#4 c #000000",
"#5 c #000000",
"#6 c #000000",
"#7 c #000000",
"#8 c #000000",
"a` c #000000",
"a. c #000000",
"a# c #000000",
"aa c #000000",
"ab c #000000",
"ac c #000000",
"ad c #000000",
"ae c #000000",
"af c #000000",
"ag c #000000",
"ah c #000000",
"ai c #000000",
"aj c #000000",
"ak c #000000",
"al c #000000",
"am c #000000",
"an c #000000",
"ao c #000000",
"ap c #000000",
"aq c #000000",
"ar c #000000",
"as c #000000",
"at c #000000",
"au c #000000",
"av c #000000",
"aw c #000000",
"ax c #000000",
"ay c #000000",
"az c #000000",
"aA c #000000",
"aB c #000000",
"aC c #000000",
"aD c #000000",
"aE c #000000",
"aF c #000000",
"aG c #000000",
"aH c #000000",
"aI c #000000",
"aJ c #000000",
"aK c #000000",
"aL c #000000",
"aM c #000000",
"aN c #000000",
"aO c #000000",
"aP c #000000",
"aQ c #000000",
"aR c #000000",
"aS c #000000",
"aT c #000000",
"aU c #000000",
"aV c #000000",
"aW c #000000",
"aX c #000000",
"aY c #000000",
"aZ c #000000",
"a0 c #000000",
"a1 c #000000",
"a2 c #000000",
"a3 c #000000",
"a4 c #000000",
"a5 c #000000",
"a6 c #000000",
"a7 c #000000",
"a8 c #000000",
/* pixels */
"`````````.`````.```````````````````````````````````````````.````````",
"```````````.`.```#`a`b`b`b`b`b`b`b`b`b`b`b`b`b`b`b`c`d`e`f```.`.````",
"`````````.`.```g`h`i`j`k`k`k`k`k`k`k`k`k`k`k`k`k`k`k`j`l`m`n`.`.````",
"`````````o```p`q`r`s`s`t`t`t`t`t`t`t`t`t`t`t`t`t`t`t`s`u`v`#```o````",
"`````````o`.`w`w```````````````````````````````````````````o`.`.````",
"`````````.`.`.`.`o`o`o`o`o`o`o`o`o`o`o`o`o`o`o`o`o`o`o`o`o`.`.`.```.",
"```````.`````````````````````.`.`.`.`.`.`.`.`.`.`.`.`.`.`.`.`.`.````",
"```````.```.`.`.```.```.`````.`.`````````````````````````.`.`.`.```.",
"`````````.`.`````````````.`.`````.`w`w`w`w`w`w`w`w`w`x`````.`.`.```.",
"`````````.`.```````````.`o```y`z`A`B`B`C`C`C`C`C`C`B`D`E`d`.`.`.````",
"```````.`.`````````````o`.`F`G`H`H`H`I`H`H`I`I`I`I`I`I`J`K`L```o````",
"```````.`.`.```````````.`.`M`N`````````````````````````````.`.`.````",
"```````````````````````.`.`````````p`y`O`N`P`w```````o`o`.`.`.``````",
"```````.`.`.`.`````````.`.```#`Q`R`S`S`T`T`T`U`E`V`u`````.``````````",
"```````.```.`.`````````o`.`f`G`z`W`X`.`````x`O`Y`T`Z`R`P```o`.``````",
"```````.`.`````````````.```o`L`````````.`.`````````0`1`2`3```o`.````",
"```````.`.`````````````````````f`f`o`o`.`.`.`.`o`f```.`4`5`x`.`o````",
"```````````.`.`o`o`.`.`.`o`o`````````````.`````.`.`o`.```6`g```.`.``",
"```.```.`.```````````````````X`g`7`G`8`f```.`````````o`.`w.``n```o``",
"`.`.`.`.`````#...#`X`x`F.a`Q.b.c.d.e.f`J.#```.`.`````.`o```y`#```o``",
"`.```o`.`L.g.b.h`Z`h`D.i`Z.f`6..`F`n.j.k.l`p`.`o```````.`.`o`x```.``",
"`.```.`.`f.m.n`c.o`T`J.p`A.q````````````.r`W```.`.`````````.```.````",
"```````.```````````````F`L```f`o`.`.`f`o`.`3`.`o`.```````````.`.`.``",
"`````````o`o```````````````o`````````.`.`.`````.`````````````.`.`.``",
"`````.```````n.s`O.a.a`y`o```.`.```.`````.`.`````.```````````.`.`.`.",
"```.`.`..n.l.t.f.c.c.f.u`4`P`.`f`.`.`o`o`.`.```````````.```.`.`o`.`.",
"```.``.s.v.w`4`z.x`a.y`0`q.z`.```.```````o`o```.`````.```.```.`.```.",
"```.`.`o`.````````````````.A`z.#`L`f`#.B.C`f`.`o```````.```.`.```.``",
"```.`.```````f`f`o`o`o`f`.`W`Z.f`2.D.u.f.B```o`.`.```.`.`o`3`o`.`.`.",
"`````.`.`p`M```o`.`````.`o``..`S.p.t.E.n```o`.`````o`o```e.F```o````",
"`````o`.`X.G`0```o`o`````.`o`````L`w`````.`.`````o`o```W.H`L`.`.````",
"`````.`o```a.D`u`````o`o`.`.`o`o`````.`o`.`.`o`o`````a`H.I```o`.````",
"```````.`o``.J.f`7`X```````.`.`o`o`o`o`.`.```````3.K.f.x```o`.`.````",
"`````.```.`o``.L.M.N`7.I`n`````````````````F.j`Q.b`l.O```f`.`.`.````",
"```````````.`o```e`H`i.P`C.Q.R.G.S.S.T.K`R`D.M`i`E`0```o`.```.``````",
"`````````.```.`o````.j`Q`J`h.f.M`k`k`i.h.b.U.o.j`````o`.```.`.`.````",
"```````````.`.`.`o`.```````F`N.a.j.j.m.V`p```````o`o```.`.``````````",
"```````````````.```.`o`o`o`````````````````.`f`f`.`.`.``````````````",
"`````````````````````.```.`.`.`o`o`o`o`o`.`.```.````````````````````",
"`````````````````````````````.```````````````.`````.````````````````"
};
