/* XPM */
static char *6_xpm[] = {
/* width height num_colors chars_per_pixel */
"    34    40      256            2",
/* colors */
"`` c #ffffff",
"`. c #fefefe",
"`# c #fdfdfd",
"`a c #f8f8f8",
"`b c #dddddd",
"`c c #c0c0c0",
"`d c #aaaaaa",
"`e c #9d9d9d",
"`f c #979797",
"`g c #989898",
"`h c #9b9b9b",
"`i c #a5a5a5",
"`j c #b7b7b7",
"`k c #d2d2d2",
"`l c #efefef",
"`m c #f1f1f1",
"`n c #bbbbbb",
"`o c #8b8b8b",
"`p c #787878",
"`q c #818181",
"`r c #8c8c8c",
"`s c #909090",
"`t c #939393",
"`u c #919191",
"`v c #8d8d8d",
"`w c #878787",
"`x c #797979",
"`y c #828282",
"`z c #ababab",
"`A c #e9e9e9",
"`B c #cdcdcd",
"`C c #868686",
"`D c #838383",
"`E c #aeaeae",
"`F c #d8d8d8",
"`G c #f0f0f0",
"`H c #fcfcfc",
"`I c #f7f7f7",
"`J c #e4e4e4",
"`K c #c1c1c1",
"`L c #8f8f8f",
"`M c #808080",
"`N c #c8c8c8",
"`O c #b5b5b5",
"`P c #7f7f7f",
"`Q c #bababa",
"`R c #f5f5f5",
"`S c #c9c9c9",
"`T c #bebebe",
"`U c #b8b8b8",
"`V c #e5e5e5",
"`W c #e6e6e6",
"`X c #949494",
"`Y c #d4d4d4",
"`Z c #d3d3d3",
"`0 c #9c9c9c",
"`1 c #e8e8e8",
"`2 c #b2b2b2",
"`3 c #f2f2f2",
"`4 c #ededed",
"`5 c #d0d0d0",
"`6 c #fbfbfb",
"`7 c #e1e1e1",
"`8 c #d9d9d9",
".` c #dbdbdb",
".. c #e2e2e2",
".# c #fafafa",
".a c #b4b4b4",
".b c #858585",
".c c #e0e0e0",
".d c #f3f3f3",
".e c #e3e3e3",
".f c #959595",
".g c #dcdcdc",
".h c #c4c4c4",
".i c #f6f6f6",
".j c #c2c2c2",
".k c #8a8a8a",
".l c #afafaf",
".m c #a7a7a7",
".n c #dadada",
".o c #f9f9f9",
".p c #cecece",
".q c #929292",
".r c #848484",
".s c #a6a6a6",
".t c #cacaca",
".u c #dfdfdf",
".v c #adadad",
".w c #d5d5d5",
".x c #cfcfcf",
".y c #bcbcbc",
".z c #a1a1a1",
".A c #acacac",
".B c #b6b6b6",
".C c #a3a3a3",
".D c #eaeaea",
".E c #999999",
".F c #a2a2a2",
".G c #c7c7c7",
".H c #c5c5c5",
".I c #9f9f9f",
".J c #eeeeee",
".K c #d1d1d1",
".L c #b0b0b0",
".M c #ebebeb",
".N c #7d7d7d",
".O c #888888",
".P c #a0a0a0",
".Q c #898989",
".R c #a4a4a4",
".S c #c3c3c3",
".T c #b3b3b3",
".U c #e7e7e7",
".V c #7c7c7c",
".W c #b1b1b1",
".X c #7e7e7e",
".Y c #757575",
".Z c #bdbdbd",
".0 c #767676",
".1 c #7a7a7a",
".2 c #c6c6c6",
".3 c #747474",
".4 c #ececec",
".5 c #000000",
".6 c #000000",
".7 c #000000",
".8 c #000000",
"#` c #000000",
"#. c #000000",
"## c #000000",
"#a c #000000",
"#b c #000000",
"#c c #000000",
"#d c #000000",
"#e c #000000",
"#f c #000000",
"#g c #000000",
"#h c #000000",
"#i c #000000",
"#j c #000000",
"#k c #000000",
"#l c #000000",
"#m c #000000",
"#n c #000000",
"#o c #000000",
"#p c #000000",
"#q c #000000",
"#r c #000000",
"#s c #000000",
"#t c #000000",
"#u c #000000",
"#v c #000000",
"#w c #000000",
"#x c #000000",
"#y c #000000",
"#z c #000000",
"#A c #000000",
"#B c #000000",
"#C c #000000",
"#D c #000000",
"#E c #000000",
"#F c #000000",
"#G c #000000",
"#H c #000000",
"#I c #000000",
"#J c #000000",
"#K c #000000",
"#L c #000000",
"#M c #000000",
"#N c #000000",
"#O c #000000",
"#P c #000000",
"#Q c #000000",
"#R c #000000",
"#S c #000000",
"#T c #000000",
"#U c #000000",
"#V c #000000",
"#W c #000000",
"#X c #000000",
"#Y c #000000",
"#Z c #000000",
"#0 c #000000",
"#1 c #000000",
"#2 c #000000",
"#3 c #000000",
"#4 c #000000",
"#5 c #000000",
"#6 c #000000",
"#7 c #000000",
"#8 c #000000",
"a` c #000000",
"a. c #000000",
"a# c #000000",
"aa c #000000",
"ab c #000000",
"ac c #000000",
"ad c #000000",
"ae c #000000",
"af c #000000",
"ag c #000000",
"ah c #000000",
"ai c #000000",
"aj c #000000",
"ak c #000000",
"al c #000000",
"am c #000000",
"an c #000000",
"ao c #000000",
"ap c #000000",
"aq c #000000",
"ar c #000000",
"as c #000000",
"at c #000000",
"au c #000000",
"av c #000000",
"aw c #000000",
"ax c #000000",
"ay c #000000",
"az c #000000",
"aA c #000000",
"aB c #000000",
"aC c #000000",
"aD c #000000",
"aE c #000000",
"aF c #000000",
"aG c #000000",
"aH c #000000",
"aI c #000000",
"aJ c #000000",
"aK c #000000",
"aL c #000000",
"aM c #000000",
"aN c #000000",
"aO c #000000",
"aP c #000000",
"aQ c #000000",
"aR c #000000",
"aS c #000000",
"aT c #000000",
"aU c #000000",
"aV c #000000",
"aW c #000000",
"aX c #000000",
"aY c #000000",
"aZ c #000000",
"a0 c #000000",
"a1 c #000000",
"a2 c #000000",
"a3 c #000000",
"a4 c #000000",
"a5 c #000000",
"a6 c #000000",
"a7 c #000000",
"a8 c #000000",
/* pixels */
"`````````````````````.`#```````````#`#```````````.`.````````````````",
"`````````````````.`#`````a`b`c`d`e`f`g`h`i`j`k`l`````#`.````````````",
"```````.`.`````.`.```m`n`o`p`q`r`s`t`t`u`v`w`x`y`z`A```.`.``````````",
"`````````````.`.```B`C`D`E`F`G`H`````````.`I`J`K`L`M`N```.`.```.````",
"```````.`.`.`.`#`O`P`Q`R`````````.`.`.`.`````````#`S`D`T```.`.`.````",
"```````.`#`.```U`r`V`````H`#`.`.`#`#`#`.`.`.`#`#`.```W`X`Y```.`.````",
"`````.`.`#```Z`0`G```H`.`````.`.`````````.`.`````.`H```1`2`3```#````",
"```````#`.`3`j`4```H`.```.`.`````V`N`5`R```#`#`.`.`#`6```7`8`.`#`.``",
"```.`.`.``.`..```#`.```.`.`..#.a`y.b`D`u.c```````````````#.d```.`.``",
"```.`#`..#.e`#`.`#`````.`.```c.f.g`I.d.h`t`Z`R.#.i`4`4`a`````.`.````",
"`````.```a`R```#`.`.```.```3`T`I```.`.``.j`p`L`L.b`P`M.k.l`A`.`#`.`.",
"```.`.```H`#`.`.```````#```l`m```6`.```.`R`u`r`h.m.a.h`5.n`3`.`.```.",
"`.```.`.`.`.```.`.`````.`.`H`#`#```#`G.o`````````````````````.``````",
"`.`.`.`.```````````````````.````.p.q.r`o.s.t.u`1`I`````H`#`.`.`.````",
"```````````.```.`````````#```a.m.b.v`5.n.n.w.x.y.z.z`Y```.`.`.``````",
"```.```.`.```````````.`.`.`I`z.A.d```````````````3`n`M.B`#`.`.`.````",
"`.`.`.`.`.```````````.`.```7.w`````6`H`#`#`#`#`#`````W`s`c```#`.````",
"`.`.`.`.`.```````````.```.`6```H`#`````.`.`.```.`.`H```l.C.u```#`.``",
"```.`````.```````````````````#`````m.d`````.`.`````.`H``.D.h.#`.`#``",
"`.```.`.`````````````.`.`.`.```Y.E`y.r.F.e```.`.`````.`#``.e`4```.``",
"`.`.`.`.`.`````````````.`.`.`j.r.v.G.H.I`w.n```#`.`.```#`..#`3`.`#``",
"```.`.```.```````````.`.``.c.s.J````````.K.L.o`.`#```.`.`.`.`#`.`.``",
"`.```.`.`````````````#`#`.`7`R```H`H`H`#```J`G```#`````````````.`.``",
"`.`.`.`.`````````````.`.```H```.`.`.`.`.`#`.`H`.`.`````````.`.`.`.``",
"```.`.`.`.`.```.```````.`.```#`.`.`````.`.`.```.`````````````.`````.",
"```.```.`.```.```.```.```.`````#`#`.`.`#`#`.`.`.```````````````.`.``",
"`.```.```.`.`.`.```.```.```H`H```````````````.`.`.`````.```.`.`.`.`.",
"`.`.`.`.`#`I```#`.`````#`.`6`N`B.J`H`H.J`Y.u`.`.`#```````.`````.```.",
"```.```#`..M`R```#`.```.`#```Y.N`y`g`g`y.O`W`.`#`.`````.```H`H```.`.",
"`````.`.``.d.w`6`.`#`.```.`#``.g.P.Q.Q.z.c```#`.```.`#`.`H`1`H`.`#`.",
"```````.`#```5.t`````#`.```.`.````.o.#`````.`.```.`#`.`.`Z`7```.`.``",
"```````.`.`.`R.R`T`H```#`#`.`.`#`.`````#`#`.`.`#`#```..S.T.#`.`.```.",
"```````#```#```J.b.z`W```````.`.`#`#`#`#`.`.```````A.R.Q.U```#`.`.`.",
"```````.`.`.`#``.e.Q.V.A.n`3````````````````.i.u.W.X`C..```#`.`.````",
"```````````````H```R.W.N.Y.O`e.L.Z.h.H`c.B.F`v.0.1.v.d```H`.```.````",
"```````.`.`.`````#````.J.2.P`o`M`p.3.3.0.V`w.E`c.D`````#```.`.`.````",
"`````````````.`.```.`#```````6`l`1`J`J`V.4`I```````#`.`.`.``````````",
"`````````````````.`.`.`#`#`#`````````````````.`H`#`.````````````````",
"`````````````````````````.`.`.`#`#`#`#`#`#`.`.`.````````````````````",
"`````````````````````````````````````````````````.``````````````````"
};
