/* XPM */
static char *7_xpm[] = {
/* width height num_colors chars_per_pixel */
"    34    40      256            2",
/* colors */
"`` c #ffffff",
"`. c #fefefe",
"`# c #e5e5e5",
"`a c #d0d0d0",
"`b c #cbcbcb",
"`c c #cccccc",
"`d c #d7d7d7",
"`e c #f1f1f1",
"`f c #fafafa",
"`g c #b7b7b7",
"`h c #7d7d7d",
"`i c #747474",
"`j c #737373",
"`k c #757575",
"`l c #8d8d8d",
"`m c #dadada",
"`n c #fdfdfd",
"`o c #f2f2f2",
"`p c #dbdbdb",
"`q c #dddddd",
"`r c #e0e0e0",
"`s c #e1e1e1",
"`t c #dfdfdf",
"`u c #dcdcdc",
"`v c #fbfbfb",
"`w c #f9f9f9",
"`x c #d8d8d8",
"`y c #a4a4a4",
"`z c #909090",
"`A c #8e8e8e",
"`B c #9b9b9b",
"`C c #d9d9d9",
"`D c #c0c0c0",
"`E c #f4f4f4",
"`F c #bdbdbd",
"`G c #999999",
"`H c #9d9d9d",
"`I c #9a9a9a",
"`J c #b4b4b4",
"`K c #d1d1d1",
"`L c #959595",
"`M c #dedede",
"`N c #939393",
"`O c #fcfcfc",
"`P c #efefef",
"`Q c #a1a1a1",
"`R c #d3d3d3",
"`S c #b8b8b8",
"`T c #c7c7c7",
"`U c #f8f8f8",
"`V c #bebebe",
"`W c #e2e2e2",
"`X c #d6d6d6",
"`Y c #bcbcbc",
"`Z c #d5d5d5",
"`0 c #d2d2d2",
"`1 c #c8c8c8",
"`2 c #d4d4d4",
"`3 c #e8e8e8",
"`4 c #f0f0f0",
"`5 c #eeeeee",
"`6 c #ededed",
"`7 c #f6f6f6",
"`8 c #f5f5f5",
".` c #ebebeb",
".. c #ececec",
".# c #f7f7f7",
".a c #f3f3f3",
".b c #afafaf",
".c c #969696",
".d c #919191",
".e c #aaaaaa",
".f c #979797",
".g c #989898",
".h c #000000",
".i c #000000",
".j c #000000",
".k c #000000",
".l c #000000",
".m c #000000",
".n c #000000",
".o c #000000",
".p c #000000",
".q c #000000",
".r c #000000",
".s c #000000",
".t c #000000",
".u c #000000",
".v c #000000",
".w c #000000",
".x c #000000",
".y c #000000",
".z c #000000",
".A c #000000",
".B c #000000",
".C c #000000",
".D c #000000",
".E c #000000",
".F c #000000",
".G c #000000",
".H c #000000",
".I c #000000",
".J c #000000",
".K c #000000",
".L c #000000",
".M c #000000",
".N c #000000",
".O c #000000",
".P c #000000",
".Q c #000000",
".R c #000000",
".S c #000000",
".T c #000000",
".U c #000000",
".V c #000000",
".W c #000000",
".X c #000000",
".Y c #000000",
".Z c #000000",
".0 c #000000",
".1 c #000000",
".2 c #000000",
".3 c #000000",
".4 c #000000",
".5 c #000000",
".6 c #000000",
".7 c #000000",
".8 c #000000",
"#` c #000000",
"#. c #000000",
"## c #000000",
"#a c #000000",
"#b c #000000",
"#c c #000000",
"#d c #000000",
"#e c #000000",
"#f c #000000",
"#g c #000000",
"#h c #000000",
"#i c #000000",
"#j c #000000",
"#k c #000000",
"#l c #000000",
"#m c #000000",
"#n c #000000",
"#o c #000000",
"#p c #000000",
"#q c #000000",
"#r c #000000",
"#s c #000000",
"#t c #000000",
"#u c #000000",
"#v c #000000",
"#w c #000000",
"#x c #000000",
"#y c #000000",
"#z c #000000",
"#A c #000000",
"#B c #000000",
"#C c #000000",
"#D c #000000",
"#E c #000000",
"#F c #000000",
"#G c #000000",
"#H c #000000",
"#I c #000000",
"#J c #000000",
"#K c #000000",
"#L c #000000",
"#M c #000000",
"#N c #000000",
"#O c #000000",
"#P c #000000",
"#Q c #000000",
"#R c #000000",
"#S c #000000",
"#T c #000000",
"#U c #000000",
"#V c #000000",
"#W c #000000",
"#X c #000000",
"#Y c #000000",
"#Z c #000000",
"#0 c #000000",
"#1 c #000000",
"#2 c #000000",
"#3 c #000000",
"#4 c #000000",
"#5 c #000000",
"#6 c #000000",
"#7 c #000000",
"#8 c #000000",
"a` c #000000",
"a. c #000000",
"a# c #000000",
"aa c #000000",
"ab c #000000",
"ac c #000000",
"ad c #000000",
"ae c #000000",
"af c #000000",
"ag c #000000",
"ah c #000000",
"ai c #000000",
"aj c #000000",
"ak c #000000",
"al c #000000",
"am c #000000",
"an c #000000",
"ao c #000000",
"ap c #000000",
"aq c #000000",
"ar c #000000",
"as c #000000",
"at c #000000",
"au c #000000",
"av c #000000",
"aw c #000000",
"ax c #000000",
"ay c #000000",
"az c #000000",
"aA c #000000",
"aB c #000000",
"aC c #000000",
"aD c #000000",
"aE c #000000",
"aF c #000000",
"aG c #000000",
"aH c #000000",
"aI c #000000",
"aJ c #000000",
"aK c #000000",
"aL c #000000",
"aM c #000000",
"aN c #000000",
"aO c #000000",
"aP c #000000",
"aQ c #000000",
"aR c #000000",
"aS c #000000",
"aT c #000000",
"aU c #000000",
"aV c #000000",
"aW c #000000",
"aX c #000000",
"aY c #000000",
"aZ c #000000",
"a0 c #000000",
"a1 c #000000",
"a2 c #000000",
"a3 c #000000",
"a4 c #000000",
"a5 c #000000",
"a6 c #000000",
"a7 c #000000",
"a8 c #000000",
/* pixels */
"```````.`````````````````````````````````````````````````````.`.````",
"```.`.`````#`a`b`c`c`c`c`c`c`c`c`c`c`c`c`c`c`c`c`c`c`b`c`d`e```.`.``",
"```.`.`f`g`h`i`i`i`i`i`i`i`i`i`i`i`i`i`i`i`i`i`i`i`i`i`j`k`l`m```n`.",
"```n```o`p`q`r`s`s`s`s`s`s`s`s`s`s`s`s`s`s`s`s`s`s`s`s`s`t`u`s`v`.`n",
"```.```.```````````````````````````````````````````````````````.```.",
"```.```.`n`n`n`n`n`n`n`n`n`n`n`n`n`n`n`n`n`n`n`n`n`n`n`n`n`n`.```.`.",
"```````.`.`.`.`.`.`.`.`.`.`.`.`.`.`.`.`.`````````````.`.`.`.`.`.`.`.",
"`.`.`.```.```````````````````````````.`.```.```````.```.`.`````.`.`.",
"```.`.`.`````v`w`w`w`w`w`w`w`w`w`f`.`````.```````````.`.```w`f`.`.``",
"`.`.`.`.`x`y`z`l`l`A`A`A`A`A`A`l`l`B`c`v`.`.```.```.`.```C`D`E`.`n`.",
"`.`.`n`.`F`G`H`H`H`H`H`H`H`H`H`H`H`I`J`E```n`````.`n```K`L`r```n`.``",
"`.```.`.`````````````````````````````````.`.```.`n```M`N`p```O`.```.",
"```.```.`n`n`n`n`n`n`n`n`n`n`n`n`````n```.```.`n```P`Q`R```O`.`.`.`.",
"```````.`.`.`.`.`.`.`.`.`.`.`.```e`q`O`.`.```n`.`O`S`T```O`.`.`.````",
"```````````````````````.```n`.`U`V`W```n`.`.`.```X`Y`.`n`.```.`````.",
"`````````````````````````.`.```Z`0```.`.```n```o`F`o```n`.`.`.``````",
"```````````````````````.`n```P`1`f`.`.```.`.```R`q```n`.````````````",
"`````````````````````.`.`.`.`2`3```n`````n```4`K`n`.`.```.```.``````",
"`````````````````````.`n```5`C```.`.`.`.`.```q`6```n```.````````````",
"`````````````````````.`.`.`t`o```n`````n```7`r`.`.`.````````````````",
"`````````````````````.```8`#`.`.`.`.`.`n``.``e```n`.````````````````",
"`````````````````````n```6`8```n`````n`.`n..`n`.`n``````````````````",
"```````````````````.`.`O`P`n`.`.`````.``.#.a```n`.``````````````````",
"```````````````````n```w`7```n`.`````n``.#`v```n````````````````````",
"```````````````.```n`.`w`O`.`n```````.`.`w`n`n`.`.``````````````````",
"```````````````````.```v`.```.`````````n`O`.`n```.``````````````````",
"```````````````.```.`.`.`.```````````.`.`.```.``````````````````````",
"```````````````.```.`.`````````````````````.`````.``````````````````",
"```````````````.`.`.`.`.`.```````````````.```.``````````````````````",
"```````````````.`.```.`.`````````````.`.````````````````````````````",
"```````````````.`.```.```````````````.`.````````````````````````````",
"```````````````.`.```.`.`.`.`.`.`.`.`.```.`.`.``````````````````````",
"```````````````````.`.`.```````````````.`.```.``````````````````````",
"```````````````.`.`````````f`f`f`w`f`O`.`.`.````````````````````````",
"```````````````.`n`n`q.b.c.d.d.d.d`Q`q```n`.`.``````````````````````",
"```````````````n```4.e`L.f.g.g.g`G`N`K`.`n`.`.``````````````````````",
"`````````````````.`.```````````````````.```.````````````````````````",
"`````````````````````.`n`n`n`n`n`n`n`.```.```.``````````````````````",
"`````````````````````.`.`.`.`.`.`.`.```.````````````````````````````",
"````````````````````````````````````````````````````````````````````"
};
