/* XPM */
static char *8_xpm[] = {
/* width height num_colors chars_per_pixel */
"    20    40      2            2",
/* colors */
"`` c #ffffffff",
"`. c #ffffff",
/* pixels */
"````````````````````````````````````````",
"````````````````````````````````````````",
"````````````````````````````````````````",
"````````````````````````````````````````",
"````````````````````````````````````````",
"````````````````````````````````````````",
"````````````````````````````````````````",
"````````````````````````````````````````",
"````````````````````````````````````````",
"````````````````````````````````````````",
"`````````````.`.`.`.`.`.`.``````````````",
"`````````.`.`.`.`.`.`.`.`.`.`.``````````",
"```````.`.`.`.`.`.`.`.`.`.`.`.`.````````",
"```````.`.`.`.`.```````.`.`.`.`.````````",
"```````.`.`.`.`.`````````.`.`.`.`.``````",
"```````.`.`.`.`.`````````.`.`.`.`.``````",
"```````.`.`.`.`.```````.`.`.`.`.````````",
"```````.`.`.`.`.`.`.`.`.`.`.`.`.````````",
"`````````.`.`.`.`.`.`.`.`.`.`.``````````",
"`````````.`.`.`.`.`.`.`.`.`.`.``````````",
"```````.`.`.`.`.`.`.`.`.`.`.`.`.````````",
"`````.`.`.`.`.`.`````````.`.`.`.`.``````",
"`````.`.`.`.`.```````````.`.`.`.`.``````",
"`````.`.`.`.`.```````````.`.`.`.`.``````",
"`````.`.`.`.`.```````````.`.`.`.`.``````",
"`````.`.`.`.`.`.```````.`.`.`.`.`.``````",
"```````.`.`.`.`.`.`.`.`.`.`.`.`.````````",
"`````````.`.`.`.`.`.`.`.`.`.`.`.````````",
"```````````.`.`.`.`.`.`.`.`.````````````",
"````````````````````````````````````````",
"````````````````````````````````````````",
"````````````````````````````````````````",
"````````````````````````````````````````",
"````````````````````````````````````````",
"````````````````````````````````````````",
"````````````````````````````````````````",
"````````````````````````````````````````",
"````````````````````````````````````````",
"````````````````````````````````````````",
"````````````````````````````````````````"
};
