/* XPM */
static char *8_xpm[] = {
/* width height num_colors chars_per_pixel */
"    34    40      256            2",
/* colors */
"`` c #ffffff",
"`. c #fefefe",
"`# c #fdfdfd",
"`a c #fcfcfc",
"`b c #ebebeb",
"`c c #cfcfcf",
"`d c #b4b4b4",
"`e c #a2a2a2",
"`f c #9a9a9a",
"`g c #979797",
"`h c #9b9b9b",
"`i c #a5a5a5",
"`j c #b5b5b5",
"`k c #cccccc",
"`l c #e6e6e6",
"`m c #dcdcdc",
"`n c #a1a1a1",
"`o c #7f7f7f",
"`p c #7a7a7a",
"`q c #888888",
"`r c #8e8e8e",
"`s c #929292",
"`t c #949494",
"`u c #919191",
"`v c #8d8d8d",
"`w c #878787",
"`x c #7c7c7c",
"`y c #959595",
"`z c #c8c8c8",
"`A c #f8f8f8",
"`B c #f6f6f6",
"`C c #acacac",
"`D c #969696",
"`E c #c5c5c5",
"`F c #f7f7f7",
"`G c #e7e7e7",
"`H c #909090",
"`I c #dfdfdf",
"`J c #f2f2f2",
"`K c #999999",
"`L c #8f8f8f",
"`M c #dadada",
"`N c #ededed",
"`O c #838383",
"`P c #d4d4d4",
"`Q c #fafafa",
"`R c #a8a8a8",
"`S c #a7a7a7",
"`T c #fbfbfb",
"`U c #d1d1d1",
"`V c #939393",
"`W c #e4e4e4",
"`X c #d6d6d6",
"`Y c #b9b9b9",
"`Z c #bcbcbc",
"`0 c #c6c6c6",
"`1 c #c2c2c2",
"`2 c #dedede",
"`3 c #dddddd",
"`4 c #f5f5f5",
"`5 c #818181",
"`6 c #848484",
"`7 c #d5d5d5",
"`8 c #e1e1e1",
".` c #bdbdbd",
".. c #dbdbdb",
".# c #f9f9f9",
".a c #c1c1c1",
".b c #d2d2d2",
".c c #cbcbcb",
".d c #c4c4c4",
".e c #eeeeee",
".f c #bfbfbf",
".g c #777777",
".h c #747474",
".i c #757575",
".j c #737373",
".k c #a0a0a0",
".l c #e2e2e2",
".m c #e9e9e9",
".n c #aaaaaa",
".o c #ececec",
".p c #efefef",
".q c #f4f4f4",
".r c #b8b8b8",
".s c #b7b7b7",
".t c #b3b3b3",
".u c #b2b2b2",
".v c #b6b6b6",
".w c #adadad",
".x c #808080",
".y c #c7c7c7",
".z c #d7d7d7",
".A c #bebebe",
".B c #989898",
".C c #e3e3e3",
".D c #a4a4a4",
".E c #d3d3d3",
".F c #f3f3f3",
".G c #f1f1f1",
".H c #e0e0e0",
".I c #c3c3c3",
".J c #cdcdcd",
".K c #d0d0d0",
".L c #f0f0f0",
".M c #d8d8d8",
".N c #e5e5e5",
".O c #9d9d9d",
".P c #eaeaea",
".Q c #d9d9d9",
".R c #afafaf",
".S c #bababa",
".T c #868686",
".U c #ababab",
".V c #a9a9a9",
".W c #858585",
".X c #787878",
".Y c #7b7b7b",
".Z c #e8e8e8",
".0 c #000000",
".1 c #000000",
".2 c #000000",
".3 c #000000",
".4 c #000000",
".5 c #000000",
".6 c #000000",
".7 c #000000",
".8 c #000000",
"#` c #000000",
"#. c #000000",
"## c #000000",
"#a c #000000",
"#b c #000000",
"#c c #000000",
"#d c #000000",
"#e c #000000",
"#f c #000000",
"#g c #000000",
"#h c #000000",
"#i c #000000",
"#j c #000000",
"#k c #000000",
"#l c #000000",
"#m c #000000",
"#n c #000000",
"#o c #000000",
"#p c #000000",
"#q c #000000",
"#r c #000000",
"#s c #000000",
"#t c #000000",
"#u c #000000",
"#v c #000000",
"#w c #000000",
"#x c #000000",
"#y c #000000",
"#z c #000000",
"#A c #000000",
"#B c #000000",
"#C c #000000",
"#D c #000000",
"#E c #000000",
"#F c #000000",
"#G c #000000",
"#H c #000000",
"#I c #000000",
"#J c #000000",
"#K c #000000",
"#L c #000000",
"#M c #000000",
"#N c #000000",
"#O c #000000",
"#P c #000000",
"#Q c #000000",
"#R c #000000",
"#S c #000000",
"#T c #000000",
"#U c #000000",
"#V c #000000",
"#W c #000000",
"#X c #000000",
"#Y c #000000",
"#Z c #000000",
"#0 c #000000",
"#1 c #000000",
"#2 c #000000",
"#3 c #000000",
"#4 c #000000",
"#5 c #000000",
"#6 c #000000",
"#7 c #000000",
"#8 c #000000",
"a` c #000000",
"a. c #000000",
"a# c #000000",
"aa c #000000",
"ab c #000000",
"ac c #000000",
"ad c #000000",
"ae c #000000",
"af c #000000",
"ag c #000000",
"ah c #000000",
"ai c #000000",
"aj c #000000",
"ak c #000000",
"al c #000000",
"am c #000000",
"an c #000000",
"ao c #000000",
"ap c #000000",
"aq c #000000",
"ar c #000000",
"as c #000000",
"at c #000000",
"au c #000000",
"av c #000000",
"aw c #000000",
"ax c #000000",
"ay c #000000",
"az c #000000",
"aA c #000000",
"aB c #000000",
"aC c #000000",
"aD c #000000",
"aE c #000000",
"aF c #000000",
"aG c #000000",
"aH c #000000",
"aI c #000000",
"aJ c #000000",
"aK c #000000",
"aL c #000000",
"aM c #000000",
"aN c #000000",
"aO c #000000",
"aP c #000000",
"aQ c #000000",
"aR c #000000",
"aS c #000000",
"aT c #000000",
"aU c #000000",
"aV c #000000",
"aW c #000000",
"aX c #000000",
"aY c #000000",
"aZ c #000000",
"a0 c #000000",
"a1 c #000000",
"a2 c #000000",
"a3 c #000000",
"a4 c #000000",
"a5 c #000000",
"a6 c #000000",
"a7 c #000000",
"a8 c #000000",
/* pixels */
"`````````````.```.`#`.`````````.`a`a`````````````#`.```.````````````",
"`````````.`````.`.`````b`c`d`e`f`g`g`h`i`j`k`l`#`````#`````.````````",
"```````.`````#`````m`n`o`p`q`r`s`t`t`u`v`w`p`x`y`z`A```#`.```.``````",
"`````````.`#```B`C`x`D`E`l`A```````````.`F`G`k`e`o`H`I```#`.```.````",
"```````.`#```J`K`L`M```````````.`.`.`.```````````N`C`O`P```#`.``````",
"```````#`.`Q`R`S`T```#`#`#`.`.`#`#`#`#`.`.`#`#`#`````U`V`W```#`.````",
"`.```.`#```X`Y`````a`.`````.`.```````````.```````#`a```M`Z`T`.`#````",
"```.`#`.`Q`X`Q```#`````.`.`````G`0`1`2`````.`.`````.`a```3`N```.```.",
"`.```.```Q`4```#`.```.`.`.`a`Z`5`O`6`o`S`4`.`.`.`````.`.`T`B```#````",
"`.`.`.`.`.```.`.`````.`#```7`h`X`B`F`8`e.``.`.`.```.`.`.`.```.`.```.",
"```.```.`.`.`````````#`.`.`I`B``````````..`T```#`````````.`.`.`.```.",
"`.```.`.```.`.```.```.`.`.`````T`a`#`T`#```.`.`.```````.`.`.`.`.```.",
"`.```.`.`.```.`.```````.```.`````````````````.```.```.`.```.`#`.```.",
"```.```.`..#`````.`````#```A`0.a.b`7.c.d.e```.`.```.`.```A`a`.`.````",
"`.`.`.`#```b`M`a```.```.`#`#.f.g.h.i.j.k`B`.`#```.`.``.l`M`.`.`.```.",
"```````.`.`Q`d.`.#`.`.```.`.``.m.c.d`M`#```.`.`.`.```M.n`b```#`.````",
"```````.`#``.o.f.p```#`.`````.```````````.`````#`.`.`c..```#`.`.````",
"`````.```.`.`````#```.```.```.`a`T`T`a`.```.`.`.```.```````.````````",
"```.```.`````b.q```.`.`````.`.```````````.```````.```T.o`a```.`.````",
"```.`.`.`a.f.r.q`#`.`.`.`.`````3.s.t.b`T```.`.```.`#`#.b.u`J`.`.`.``",
"```.`#```m.v`A```.```.`#`.`A.w.x`v`L`5`f.o```#`.```.`.``.y.d`.`.`.``",
"```#`.`a.z`B```#`````#`.``.A.B.C`.``.o`S.D.#`.`#`````.`.``.E`J```.``",
"```#`.`Q.F```#`.`````#``.q.y.#```#`#`````z.l```.`.`.```#`.`B.G```#``",
"```.`.`.`.`.`.```````.```F`A```a`.`.`a`.`a`J```#`.`````.`.`.`#```.``",
"`.`.```.`.`.```.`````.`.```.`.`.`.```.`.`.`````.```````````.`.`.````",
"```````.`.```.```````````.```.`#`.`.`.`.```.`.`.`.`````.```.`.`.`.``",
"`.`.`.`.`.```````````.`.`.`a`````````````#`#```.```````.```.`````.``",
"`.`.`.`.`.`.`````````.`#``.H.I`W.#`T`N.J.K`#`.`#`````````.`.`.`.```.",
"```````.`````.`````````#`..q`f`p`H`D`5`5`2```#`.```````.`````.`.`.`.",
"`.```.`.`B`Q```#`.```.`.`.```4.u`v`q.k`8```#`.```.`.`#`.`#.L`#`.`.`.",
"`.```#```4.M`Q```a`.```````.`````a.#`````.`.```.`.`#`.```m.N```#````",
"`````.`#``.J`Y`B```.`#`.`.`.`.`#`````.`#`.`.`.`#`#`````k.v.#`.`#`.`.",
"```````#`#`F.O`y`3`````````.`.`#`#`#`#`.`.````````.P`C`q.C```#`.````",
"```````.`#``.G`g.g`e.b.e`a`````````````````..G.Q.R`o`o.M```#`.`.````",
"```````````#```#.f`O.j`O`y`R.s.f.d`0`1.S`C`K.T.i`x.U.e```#`.```.````",
"```````.`.```.`.```4`c.V`H.W`x.X.i.h.i.Y`O`r.D`z`N`````#`````.``````",
"`````````.`.```#`a`````````4.o.Z.N`W.N.P.F`.```````#`.```.`.```.````",
"```````````````.`.`.`#`#`.```````````````````#`#`#`.`.`.````````````",
"```````````````````````.`.`.`#`#`#`#`#`#`.`.`.``````````````````````",
"````````````````````````````````````````````````````````````````````"
};
