/* XPM */
static char *9_xpm[] = {
/* width height num_colors chars_per_pixel */
"    34    40      256            2",
/* colors */
"`` c #ffffff",
"`. c #fefefe",
"`# c #fdfdfd",
"`a c #fcfcfc",
"`b c #f8f8f8",
"`c c #dddddd",
"`d c #c0c0c0",
"`e c #aaaaaa",
"`f c #9c9c9c",
"`g c #979797",
"`h c #9a9a9a",
"`i c #a2a2a2",
"`j c #b3b3b3",
"`k c #cbcbcb",
"`l c #e7e7e7",
"`m c #f6f6f6",
"`n c #bfbfbf",
"`o c #8d8d8d",
"`p c #797979",
"`q c #828282",
"`r c #8c8c8c",
"`s c #919191",
"`t c #939393",
"`u c #949494",
"`v c #929292",
"`w c #8e8e8e",
"`x c #888888",
"`y c #7a7a7a",
"`z c #7c7c7c",
"`A c #999999",
"`B c #d0d0d0",
"`C c #dbdbdb",
"`D c #afafaf",
"`E c #d9d9d9",
"`F c #f1f1f1",
"`G c #e8e8e8",
"`H c #9f9f9f",
"`I c #e9e9e9",
"`J c #b0b0b0",
"`K c #f3f3f3",
"`L c #e6e6e6",
"`M c #878787",
"`N c #dfdfdf",
"`O c #d3d3d3",
"`P c #8f8f8f",
"`Q c #dadada",
"`R c #fbfbfb",
"`S c #c8c8c8",
"`T c #adadad",
"`U c #d6d6d6",
"`V c #cccccc",
"`W c #f5f5f5",
"`X c #c9c9c9",
"`Y c #d4d4d4",
"`Z c #cdcdcd",
"`0 c #868686",
"`1 c #818181",
"`2 c #858585",
"`3 c #808080",
"`4 c #8b8b8b",
"`5 c #f9f9f9",
"`6 c #909090",
"`7 c #c5c5c5",
"`8 c #f0f0f0",
".` c #ececec",
".. c #bbbbbb",
".# c #e5e5e5",
".a c #dcdcdc",
".b c #c1c1c1",
".c c #f4f4f4",
".d c #fafafa",
".e c #f7f7f7",
".f c #f2f2f2",
".g c #aeaeae",
".h c #dedede",
".i c #b4b4b4",
".j c #a3a3a3",
".k c #ebebeb",
".l c #7e7e7e",
".m c #737373",
".n c #787878",
".o c #c2c2c2",
".p c #ededed",
".q c #bababa",
".r c #c6c6c6",
".s c #c4c4c4",
".t c #d7d7d7",
".u c #9d9d9d",
".v c #e1e1e1",
".w c #b7b7b7",
".x c #d1d1d1",
".y c #e2e2e2",
".z c #bcbcbc",
".A c #767676",
".B c #efefef",
".C c #969696",
".D c #848484",
".E c #838383",
".F c #757575",
".G c #acacac",
".H c #bebebe",
".I c #a5a5a5",
".J c #989898",
".K c #a6a6a6",
".L c #959595",
".M c #a1a1a1",
".N c #bdbdbd",
".O c #c7c7c7",
".P c #898989",
".Q c #cacaca",
".R c #b8b8b8",
".S c #7b7b7b",
".T c #777777",
".U c #7f7f7f",
".V c #c3c3c3",
".W c #b5b5b5",
".X c #a9a9a9",
".Y c #a7a7a7",
".Z c #747474",
".0 c #7d7d7d",
".1 c #eaeaea",
".2 c #e4e4e4",
".3 c #000000",
".4 c #000000",
".5 c #000000",
".6 c #000000",
".7 c #000000",
".8 c #000000",
"#` c #000000",
"#. c #000000",
"## c #000000",
"#a c #000000",
"#b c #000000",
"#c c #000000",
"#d c #000000",
"#e c #000000",
"#f c #000000",
"#g c #000000",
"#h c #000000",
"#i c #000000",
"#j c #000000",
"#k c #000000",
"#l c #000000",
"#m c #000000",
"#n c #000000",
"#o c #000000",
"#p c #000000",
"#q c #000000",
"#r c #000000",
"#s c #000000",
"#t c #000000",
"#u c #000000",
"#v c #000000",
"#w c #000000",
"#x c #000000",
"#y c #000000",
"#z c #000000",
"#A c #000000",
"#B c #000000",
"#C c #000000",
"#D c #000000",
"#E c #000000",
"#F c #000000",
"#G c #000000",
"#H c #000000",
"#I c #000000",
"#J c #000000",
"#K c #000000",
"#L c #000000",
"#M c #000000",
"#N c #000000",
"#O c #000000",
"#P c #000000",
"#Q c #000000",
"#R c #000000",
"#S c #000000",
"#T c #000000",
"#U c #000000",
"#V c #000000",
"#W c #000000",
"#X c #000000",
"#Y c #000000",
"#Z c #000000",
"#0 c #000000",
"#1 c #000000",
"#2 c #000000",
"#3 c #000000",
"#4 c #000000",
"#5 c #000000",
"#6 c #000000",
"#7 c #000000",
"#8 c #000000",
"a` c #000000",
"a. c #000000",
"a# c #000000",
"aa c #000000",
"ab c #000000",
"ac c #000000",
"ad c #000000",
"ae c #000000",
"af c #000000",
"ag c #000000",
"ah c #000000",
"ai c #000000",
"aj c #000000",
"ak c #000000",
"al c #000000",
"am c #000000",
"an c #000000",
"ao c #000000",
"ap c #000000",
"aq c #000000",
"ar c #000000",
"as c #000000",
"at c #000000",
"au c #000000",
"av c #000000",
"aw c #000000",
"ax c #000000",
"ay c #000000",
"az c #000000",
"aA c #000000",
"aB c #000000",
"aC c #000000",
"aD c #000000",
"aE c #000000",
"aF c #000000",
"aG c #000000",
"aH c #000000",
"aI c #000000",
"aJ c #000000",
"aK c #000000",
"aL c #000000",
"aM c #000000",
"aN c #000000",
"aO c #000000",
"aP c #000000",
"aQ c #000000",
"aR c #000000",
"aS c #000000",
"aT c #000000",
"aU c #000000",
"aV c #000000",
"aW c #000000",
"aX c #000000",
"aY c #000000",
"aZ c #000000",
"a0 c #000000",
"a1 c #000000",
"a2 c #000000",
"a3 c #000000",
"a4 c #000000",
"a5 c #000000",
"a6 c #000000",
"a7 c #000000",
"a8 c #000000",
/* pixels */
"`````````````.```.`#```````````a`a`.```````````#`.```.``````````````",
"`````````.`````#`````b`c`d`e`f`g`g`h`i`j`k`l`.`````#`````.``````````",
"```````````.`#```m`n`o`p`q`r`s`t`u`v`w`x`y`z`A`B`#```#`.```.`.``````",
"`````.```.`#```C`r`q`D`E`F`#```````````b`G`k`H`z`h`I```#`.``````````",
"```````.`#```B`q`J`K`````````.`.`.`.```````````L`H`M`N```#`.`.``````",
"```.`.`#```N`w`O`````a`#`.`.`.`#`#`#`.`.`#`#`#`````n`P`I```#`.``````",
"`````#`.`m`D`Q```R`#`````.`.```````````.`.```.`#`#```S`T`b`.`.``````",
"```.`.```Q`U```a`.```.`.`.```F`V`n`B`W```#`.`````.`#```X`Y```.`.````",
"```#`.`R`N`a`.`.`````.`#```Z`0`1`2`3`4`Y```#`.`````#`.`5`B`m`.`#````",
"```#```5`W```#`.`.`.`#```c`6`7`8`b.`..`4`c```#`.`.`.`#``.`.````#````",
"```.`.`#`.`.`.`````#`.`#`Z.#``````````.a.b`#`.`#`````#`.`a`F`.`.````",
"```````````````````.```a.c```a`#`.`#`a``.``5```#```.`.`.`..d`#``````",
"```.`.`.`.```.```````.`````.`.`.`.```.`#```.```.```````.`.`.`.`.````",
"```.`.`.`.`````````.```.`.`#`.```.`.`.`.`.```.``````````````````````",
"```.`.`.```````````````.`````.`#`#`#`.`````.`.`````````.```.````````",
"`````````.`.`````````.``.e.f```````````W.c`.`.`.`````````````.`.```.",
"```````````.`.```.```#`.`W.g.g`B.h`Y.i.j.k```#`.`````````````.`.```.",
"`.`.`.`.`5```#`.```.`.`#```Y.l.m.n.m`p.o```#`.``````````````````````",
"`.`.`#`..`.p```#`.`````.`.```8`X.q.r.k```.`.`````````````````.`````.",
"`.```#``.e.s`I```#`#```````#```````````a`.```.`````````````````.`.``",
"`.```.`#``.t.u.v`````#`#`.`.`#`a`R`a```````.`````````````````.`.`.``",
"```````.`#``.w`3`d`m`````````````````8.x.y```.`.`````````````.`.`.``",
"`````.```.`#``.z.A`r.z`N.B`W`W.p`Q`J`q.C.``.`#`.`````````````.`.`.``",
"```````.`.`#`#```N`g.A.A.D`r`r.E.F`p.G`K```.`.```````````````.`.````",
"`````````.`.```.````.v.H.I`A.J.K.o`I`````#`````.`````.```.`.`.`.````",
"`````.`.```````#`````````````````````a`.```.`````````````.`.`.`.`.`.",
"`````.`..d`X.J`6.L.j.i`S`G`.`````#`````R.d```.```````.`.```.`.`.`.``",
"`.```#`..#.M.K.i.N`k`E.y.c`Y`k.c.d.c`E.O`b`.`#`````.`#``.d`5`.`.```.",
"`.```.`.`#`````````````````l.l.D.L.P`y`k```#`.`.```#`.`#`G`R```#```.",
"`.```.`.`.`````a`a`#`#`#`#```C.C`0`t.Q```#`.`````#`#``.h.v```.`.````",
"```````.`..B`F```#`#`````.`.````.e```````.```.`#`.``.a.R.e`.`#``````",
"`.`.`.`#`..p`D`N`````a`.`.`.`#`.`````#`.`.`#`#`````B`v`c```#`.`.````",
"```.```.`#```Z`x`7.d`````.`.`.`#`#`#`.`.``````.`.g.S.O```#`.`.``````",
"```````.`.`a```d.T`u`k.p`#```````````````m`N`j`1.U.x```#`.```.``````",
"```````.```.`#```Q`P.m`1.J`T...V.s`d.W.M`r.T`y.X.p```a`.````````````",
"`````````.```.`#```#`O.Y`o`q`p.F.Z.A.0`M`h.b.1`````#`.`.`.```.``````",
"```````.```.`.`.`#```````#.f`I.#.2`L.`.e```````#`.```.``````````````",
"```````````````````.`#`#`````````````````.`#`#`.```.````````````````",
"`````````````````````````.`#`#`#`#`#`#`.`.``````````````````````````",
"````````````````````````````````````````````````````````````````````"
};
