/* XPM */
static char *end[] = {
/* columns rows colors chars-per-pixel */
"100 40 83 1 ",
"  c black",
". c #626262",
"X c gray49",
"o c gray50",
"O c #838383",
"+ c #848484",
"@ c #868686",
"# c gray53",
"$ c gray54",
"% c #8B8B8B",
"& c #8E8E8E",
"* c gray56",
"= c gray57",
"- c #959595",
"; c gray59",
": c gray62",
"> c #9F9F9F",
", c #A0A0A0",
"< c #A4A4A4",
"1 c #A7A7A7",
"2 c gray69",
"3 c gray70",
"4 c #B6B6B6",
"5 c #B7B7B7",
"6 c gray72",
"7 c #B9B9B9",
"8 c gray73",
"9 c #BBBBBB",
"0 c #BCBCBC",
"q c gray74",
"w c gray75",
"e c #C0C0C0",
"r c #C1C1C1",
"t c gray76",
"y c #C3C3C3",
"u c #C5C5C5",
"i c #C6C6C6",
"p c gray78",
"a c #CACACA",
"s c #CBCBCB",
"d c gray80",
"f c #CDCDCD",
"g c #CECECE",
"h c #D0D0D0",
"j c gray82",
"k c #D2D2D2",
"l c LightGray",
"z c gray83",
"x c #D5D5D5",
"c c #D7D7D7",
"v c gray85",
"b c #DADADA",
"n c #DDDDDD",
"m c gray87",
"M c gray88",
"N c #E1E1E1",
"B c #E2E2E2",
"V c gray89",
"C c #E4E4E4",
"Z c gray90",
"A c #E7E7E7",
"S c gray91",
"D c #E9E9E9",
"F c #EAEAEA",
"G c gray92",
"H c #ECECEC",
"J c gray93",
"K c #EFEFEF",
"L c gray94",
"P c gray95",
"I c #F3F3F3",
"U c gray96",
"Y c #F6F6F6",
"T c gray97",
"R c #F8F8F8",
"E c #F9F9F9",
"W c gray98",
"Q c #FBFBFB",
"! c gray99",
"~ c #FDFDFD",
"^ c #FEFEFE",
"/ c gray100",
"( c None",
/* pixels */
"((((((((((((((((((((((((((((((((((((((((((((((((((((((((((((((((((((((((((((((((((((((((((((((((((((",
"((((((((((((((((((((((((((((((((((((((((((((((((((((((((((((((((((((((((((((((((((((((((((((((((((((",
"((((((((((((((((((((((((((((((((((((((((((((((((((((((((((((((((((((((((((((((((((((((((((((((((((((",
"((((((((((((((((((((((((((((((((((((((((((((((((((((((((((((((((((((((((((((((((((((((((((((((((((((",
"((((((((((((((((((((((((((((((((((((((((((((((((((((((((((((((((((((((((((((((((((((((((((((((((((((",
"((((((((((((((((((((((((((((((((((((((((((((((((((((((((((((((((((((((((((((((((((((((((((((((((((((",
"((((((((((((((((((((((((((((((((((((((((((((((((((((((((((((((((((((((((((((((((((((((((((((((((((((",
"((((((((((((((((((((((((((((((((((((((((((((((((((((((((((((((((((((((((((((((((((((((((((((((((((((",
"(((((((((((((((((((((((((           ((((((((((((((((((((((((((((((((((((((((((((((((((((((((((((((((",
"(((((((((((((((((((((((gwwwwwwwwwwwwwi((((((((((((((((((((((((((((((wwwwl(((((((((((((((OADU((((((((",
"(((((((((((((((((((((((///////////////(((((((((((((((((((((((((((((I////U(((((((((((((((U///((((((((",
"(((((((((((((((((((((((///////////////(((((((((((((((((((((((((((((//////((((((((((((((B////((((((((",
"(((((((((((((((((((((((///////l93339aD/((((((((((((((((((((((((((((//////((((((((((((((////(((((((((",
"(((((((((((((((((((((((/////U5=;;;;;=3/((((((((((( (((((((((((( ((((/////(((((((((((((R////(((((((((",
"(((((((((((((((((((((((//////((((((((((((<====  .wwwo((((((((.wwwX(K/////(((((((((((((/////(((((((((",
"(((((((((((((((((((((((//////((((((((((((///// a/////A((((((a/////KU/////((((((((((((/////((((((((((",
"(((((((((((((((((((((((//////lwwwwwwl((((/////D///////A((((m/////////////((((((((((((/////((((((((((",
"(((((((((((((((((((((((//////////////((((//////////////((((/////vlU//////((((((((((((/////((((((((((",
"(((((((((((((((((((((((///////////////(((/////Iw9t/////(((/////ag(9B/////((((((((((((/////((((((((((",
"(((((((((((((((((((((((//////i&oooo@9U(((/////B((D/////(((/////D(((K/////(((((((((((/////(((((((((((",
"(((((((((((((((((((((((/////KcgggggglR(((//////(((/////(((/////((((//////(((((((((((/////(((((((((((",
"(((((((((((((((((((((((//////((((((((((((/////((((/////(((/////((((//////(((((((((((/////(((((((((((",
"(((((((((((((((((((((((//////((((((((((((/////((((/////(((/////(((((/////(((((((((((/////(((((((((((",
"(((((((((((((((((((((((//////,=======;(((/////((((/////(((/////K(((//////(((((((((((/////(((((((((((",
"(((((((((((((((((((((((///////////////I((/////((((/////(((RU////t=D//////((((((((((((/////((((((((((",
"(((((((((((((((((((((((////////////////((/////((((/////((((aB////////////((((((((((((/////((((((((((",
"(((((((((((((((((((((((Kgw5wgvBADADDI//((IltaD/(((IgtaD/(((l$:lR//mi:<wvR((((((((((((/////((((((((((",
"(((((((((((((((((((((((<oooooooooooooom((:ooo&I(((,ooO&I((((t$oOoO3(ooOoa((((((((((((R////((((((((((",
"((((((((((((((((((((((((((((((((((((((((((((((((((((((((((((((vgv(((((((((((((((((((((D///((((((((((",
"((((((((((((((((((((((((((((((((((((((((((((((((((((((((((((((((((((((((((((((((((((((DI///(((((((((",
"(((((((((((((((((((((((((((((((((((((((((((((((((((((((((((((((((((((((((((((((((((((((c///(((((((((",
"(((((((((((((((((((((((((((((((((((((((((((((((((((((((((((((((((((((((((((((((((((((((A9I//((((((((",
"((((((((((((((((((((((((((((((((((((((((((((((((((((((((((((((((((((((((((((((((((((((((9@w/((((((((",
"(((((((((((((((((((((((((((((((((((((((((((((((((((((((((((((((((((((((((((((((((((((((((glD((((((((",
"((((((((((((((((((((((((((((((((((((((((((((((((((((((((((((((((((((((((((((((((((((((((((((((((((((",
"((((((((((((((((((((((((((((((((((((((((((((((((((((((((((((((((((((((((((((((((((((((((((((((((((((",
"((((((((((((((((((((((((((((((((((((((((((((((((((((((((((((((((((((((((((((((((((((((((((((((((((((",
"((((((((((((((((((((((((((((((((((((((((((((((((((((((((((((((((((((((((((((((((((((((((((((((((((((",
"((((((((((((((((((((((((((((((((((((((((((((((((((((((((((((((((((((((((((((((((((((((((((((((((((((",
"(((((((((((((((((((((((((((((((((((((((((((((((((((((((((((((((((((((((((((((((((((((((((((((((((((("
};
