/* XPM */
static char *finparenthese[] = {
/* columns rows colors chars-per-pixel */
"40 40 22 1 ",
"  c #838383",
". c #868686",
"X c #B9B9B9",
"o c gray73",
"O c gray75",
"+ c #CDCDCD",
"@ c gray82",
"# c gray83",
"$ c #E1E1E1",
"% c gray90",
"& c #E7E7E7",
"* c #E9E9E9",
"= c #EAEAEA",
"- c #ECECEC",
"; c gray95",
": c #F6F6F6",
"> c gray97",
", c #F9F9F9",
"< c gray98",
"1 c gray99",
"2 c gray100",
"3 c None",
/* pixels */
"3333333333333333333333333333333333333333",
"3333333333333333333333333333333333333333",
"3333333333333333333333333333333333333333",
"3333333333333333333333333333333333333333",
"3333333333333333333333333333333333333333",
"3333333333333333333333333333333333333333",
"3333333333333333333333333333333333333333",
"3333333333333333333333333333333333333333",
"3333333333>*% 33333333333333333333333333",
"3333333333222>33333333333333333333333333",
"33333333332222$3333333333333333333333333",
"3333333333322223333333333333333333333333",
"333333333332222,333333333333333333333333",
"3333333333322222333333333333333333333333",
"3333333333332222233333333333333333333333",
"3333333333332222233333333333333333333333",
"3333333333332222233333333333333333333333",
"3333333333332222233333333333333333333333",
"3333333333333222223333333333333333333333",
"3333333333333222223333333333333333333333",
"3333333333333222223333333333333333333333",
"3333333333333222223333333333333333333333",
"3333333333333222223333333333333333333333",
"3333333333332222233333333333333333333333",
"3333333333332222233333333333333333333333",
"3333333333332222233333333333333333333333",
"3333333333332222,33333333333333333333333",
"333333333333222*333333333333333333333333",
"33333333333222;*333333333333333333333333",
"33333333333222#3333333333333333333333333",
"333333333322;o*3333333333333333333333333",
"33333333332O.o33333333333333333333333333",
"3333333333-@+333333333333333333333333333",
"3333333333333333333333333333333333333333",
"3333333333333333333333333333333333333333",
"3333333333333333333333333333333333333333",
"3333333333333333333333333333333333333333",
"3333333333333333333333333333333333333333",
"3333333333333333333333333333333333333333",
"3333333333333333333333333333333333333333"
};
