/* XPM */
static char *lemin_ant1[] = {
/* columns rows colors chars-per-pixel */
"40 50 221 2 ",
"   c #490000",
".  c #4A0000",
"X  c #4D0000",
"o  c #510000",
"O  c #550000",
"+  c #570000",
"@  c #580000",
"#  c #610000",
"$  c #6C0000",
"%  c #6D0000",
"&  c #6E0000",
"*  c #700000",
"=  c #720000",
"-  c #780000",
";  c #790000",
":  c #7F0000",
">  c #800000",
",  c #840000",
"<  c #850000",
"1  c #880000",
"2  c #8B0000",
"3  c #8B0101",
"4  c #8C0000",
"5  c #8C0101",
"6  c #8C0202",
"7  c #8D0202",
"8  c #8C0303",
"9  c #8D0303",
"0  c #8D0404",
"q  c #8D0505",
"w  c #8E0606",
"e  c #8E0707",
"r  c #8F0808",
"t  c #8F0909",
"y  c #920000",
"u  c #960404",
"i  c #900909",
"p  c #900A0A",
"a  c #900B0B",
"s  c #970B0B",
"d  c #910C0C",
"f  c #910D0D",
"g  c #910E0E",
"h  c #920E0E",
"j  c #920F0F",
"k  c #921010",
"l  c #931010",
"z  c #931111",
"x  c #931212",
"c  c #961111",
"v  c #941212",
"b  c #941313",
"n  c #941414",
"m  c #951414",
"M  c #951515",
"N  c #951616",
"B  c #961616",
"V  c #961717",
"C  c #971717",
"Z  c #981717",
"A  c #961818",
"S  c #971818",
"D  c #961919",
"F  c #971919",
"G  c #971A1A",
"H  c #971B1B",
"J  c #981A1A",
"K  c #981B1B",
"L  c #9F1B1B",
"P  c #981C1C",
"I  c #991D1D",
"U  c #991E1E",
"Y  c #991F1F",
"T  c #9A1F1F",
"R  c #A01E1E",
"E  c #992020",
"W  c #9A2020",
"Q  c #9B2121",
"!  c #9A2222",
"~  c #9B2222",
"^  c #9B2323",
"/  c #9B2424",
"(  c #9C2424",
")  c #9D2424",
"_  c #9C2525",
"`  c #9F2525",
"'  c #9C2626",
"]  c #9D2626",
"[  c #9D2727",
"{  c #9D2929",
"}  c #9E2828",
"|  c #9E2929",
" . c #9E2A2A",
".. c #9F2A2A",
"X. c #9E2B2B",
"o. c #9F2B2B",
"O. c #9F2C2C",
"+. c #A12222",
"@. c #A32323",
"#. c #A42626",
"$. c #A12828",
"%. c #A12A2A",
"&. c #A52828",
"*. c #A52929",
"=. c #A42A2A",
"-. c #A02D2D",
";. c #A02E2E",
":. c #A12E2E",
">. c #A12F2F",
",. c #A52C2C",
"<. c #A42D2D",
"1. c #A52D2D",
"2. c #A62D2D",
"3. c #A72D2D",
"4. c #A42F2F",
"5. c #A52F2F",
"6. c #A72E2E",
"7. c #A82F2F",
"8. c #A13030",
"9. c #A13131",
"0. c #A23232",
"q. c #A33333",
"w. c #A43030",
"e. c #A53131",
"r. c #A53232",
"t. c #A43333",
"y. c #A33434",
"u. c #A33636",
"i. c #A53434",
"p. c #A43535",
"a. c #A53636",
"s. c #A43737",
"d. c #A53737",
"f. c #A83030",
"g. c #A93131",
"h. c #A93232",
"j. c #A93333",
"k. c #A53939",
"l. c #A63A3A",
"z. c #A73A3A",
"x. c #A73D3D",
"c. c #A83939",
"v. c #AB3838",
"b. c #AB3939",
"n. c #A83A3A",
"m. c #A93A3A",
"M. c #A93B3B",
"N. c #AB3A3A",
"B. c #AC3A3A",
"V. c #A93D3D",
"C. c #AB3D3D",
"Z. c #A93E3E",
"A. c #AA3E3E",
"S. c #AD3C3C",
"D. c #AD3E3E",
"F. c #A84040",
"G. c #AB4141",
"H. c #A94242",
"J. c #AB4242",
"K. c #AA4343",
"L. c #AB4343",
"P. c #AF4040",
"I. c #AE4242",
"U. c #AF4545",
"Y. c #AC4646",
"T. c #AF4848",
"R. c #AF4A4A",
"E. c #B04343",
"W. c #B14444",
"Q. c #B14545",
"!. c #B14646",
"~. c #B24747",
"^. c #B04848",
"/. c #B04949",
"(. c #B24848",
"). c #B04B4B",
"_. c #B34B4B",
"`. c #B24C4C",
"'. c #B25050",
"]. c #B35151",
"[. c #B35353",
"{. c #B65050",
"}. c #B65151",
"|. c #B45353",
" X c #B55353",
".X c #B75757",
"XX c #B85555",
"oX c #B65959",
"OX c #B55A5A",
"+X c #B75B5B",
"@X c #B95858",
"#X c #B95959",
"$X c #BA5A5A",
"%X c #B85D5D",
"&X c #BA5C5C",
"*X c #BB5C5C",
"=X c #BA5D5D",
"-X c #BC5F5F",
";X c #BB6161",
":X c #B96262",
">X c #BD6161",
",X c #BD6262",
"<X c #BC6363",
"1X c #BE6363",
"2X c #BE6565",
"3X c #BF6666",
"4X c #BF6767",
"5X c #BF6C6C",
"6X c #BF6E6E",
"7X c #C06868",
"8X c #C16B6B",
"9X c #C26D6D",
"0X c #C26E6E",
"qX c #C07171",
"wX c #C37171",
"eX c #C17272",
"rX c #C47373",
"tX c #C57575",
"yX c #C47777",
"uX c #C67676",
"iX c None",
/* pixels */
"iXiXiXiXiXiXiXiXiXiXiXiXiXiXiXiXiXiXiXiXiXiXiXiXiXiXiXiXiXiXiXiXiXiXiXiXiXiXiXiX",
"iXiXiXiXiXiXiXiXiXiXiXiXiXiXiXiXiXiXiXiXiXiXiXiXiXiXiXiXiXiXiXiXiXiXiXiXiXiXiXiX",
"iXiXiXiXiXiXiXiXiXiXiXiXiXiXiXiXiXiXiXiXiXiXiXiXiXiXiXiXiXiXiXiXiXiXiXiXiXiXiXiX",
"iXiXiXiXiXiXiXiXiXiXiXiXiXiXiXiXiXiXiXiXiXiXiXiXiXiXiXiXiXiXiXiXiXiXiXiXiXiXiXiX",
"iXiXiXiXiXiXiXiXiXiXiXiXiXiXiXiXiXiXiXiXiXiXiXiXiXiXiXiXiXiXiXiXiXiXiXiXiXiXiXiX",
"iXiXiXiXiXiXiXiXiXiXiXiXiXiXiXiXiXiXiXiXiXiXiXiXiXiXiXiXiXiXiXiXiXiXiXiXiXiXiXiX",
"iXiXiXiXiXiXiXiXiXiXiXiXiXiXiXQ Q iXiXiXiXiXiXiXx r iXiXiXiXiXiXiXiXiXiXiXiXiXiX",
"iXiXiXiXiXiXiXiXiXiXiXiXiXiXiX>.0.iXiXiXiXiXiXiXF.n iXiXiXiXiXiXiXiXiXiXiXiXiXiX",
"iXiXiXiXiXiXv j iXiXiXiXiXiXiX| | iXiXiXiXiXiXiXY.n iXiXiXiXiXiXiXiXiXiXiXiXiXiX",
"iXiXiXiXiXiXv [ a iXiXiXiXiXiX0.[ iXiXiXiXiXiXiXx.S iXiXiXiXiXiXiXiXiXiXiXiXiXiX",
"iXiXiXiXiXiXiXj [ w iXiXiXiXx F.j iXiXiXiXiXiXiXO.[ iXiXiXiXiXiXiXiXiXiXiXiXiXiX",
"iXiXiXiXiXiXiXiXS | 8 iXiX8 F.S iXiXiXiXiXiXiXiXiXO.x iXiXiXiXiXiXiXiXiXiXiXiXiX",
"iXiXiXiXiXiXiXiXiXY Q iXiX8 0.y.w iXiXiXiXiXiXiXY z.n iXiXiXiXiXiXiXiXiXiXiXiXiX",
"iXiXiXiXiXiXiXiXiXiXY n iXiXiX>.F.S Q / S S r 0.y.n iXiXiXiXiXiXiXiXiXiXiXiXiXiX",
"iXiXiXiXiXiXiXiXiXiXw [ a iXiXiXM 0.tXeX0XqX[ [ iXiXiXiXiXiXiXiXiXiXiXiXiXiXiXiX",
"iXiXiXiXiXiXiXiXiXiXiXn t.iXiXiXiXY.tXtXtXwXF.iXiXiXiXiXiXiXiXiXiXiXiXiXiXiXiXiX",
"iXiXiXiXiXiXiXiXiXiXiXiX%.0.iXiXr 5XeXwXeX8X<X3 iXiXiXiXiXiXiXiXiXiXiXiXiXiXiXiX",
"iXiXiXiXiXiXiXiXiXiXiXiX3 c.J iXQ <X8X0X0X8X<XY iXiXiXiXiXiXiXiXiXiXiXiXj J iXiX",
"iXiXiXiXiXiXiXiXiXiXiXiXiXr a.w J @X>X3X4X>X@X[ iXiXiXiXiXiXiXiXiXiXj Y ) Y iXiX",
"iXiXiXiXiXiXiXiXiXiXiXiXiXiXn t.n F.{.oX+X@XXXJ iXiXiXiXiXiXiXiX8 J Y n 3 iXiXiX",
"iXiXiXiXiXiXiXiXiXiXiXiXiXiXiXZ @.%.S.W.).).F.iXiXiXiXiXiXiXiXQ [ v iXiXiXiXiXiX",
"iXiXiXiXiXiXiXiXiXiXiXiXiXiXiXiXn @.) c.W.C.8 iXiXiXiXiXiXj [ | v x 8 iXiXiXiXiX",
"iXiXiXiXiXiXiXiXiXiXiXiXiXiXiXiXiXS [ c.W.Y.j iXiXw v n O.[.y.n S Y w iXiXiXiXiX",
"iXiXiXiXiXiXiXiXiXiXiXiXiXiXiXiXiX8 t.S.W.W.z.S C.W.).).| S x j 3 iXiXiXiXiXiXiX",
"iXiXiXiXiXiXiXiXiXiXiXiXiXiXiXiXiXj *.h.h.h.3.1.>.1.Q j iXiXiXiXiXiXiXiXiXiXiXiX",
"iXiXiXiXiXiXiXiXiXiXiXiXiXiXiXiXiXiX[ *.*.@.R l a 8 iXiXiXiXiXiXiXiXiXiXiXiXiXiX",
"iXiXiXiXiXiXiXiXiXiXiXiXiXiXiXiXiXa 1.h.3.%.v iXiXiXiXiXiXiXiXiXiXiXiXiXiXiXiXiX",
"iXiXiXiXiXiXiXiXiXiXiXiXiXiXiXJ >.S.c.c.S.1.iXiXiXiXiXiXiXiXiXiXiXiXiXiXiXiXiXiX",
"iXiXiXiXiXiXiXiXw n J n Y z.).Y.S.Q v c.S.c.n iXiXiXiXiXiXiXiXiXiXiXiXiXiXiXiXiX",
"iXiXiXiXiXiXiXw Y [ x Y a.t.[ Q x iXiXc.E.C.t.iXiXiXiXiXiXiXiXiXiXiXiXiXiXiXiXiX",
"iXiXiXiXiXiXiX8 8 iXx | x iXiXiXiXiXiXQ ).v a.a.iXiXiXiXiXiXiXiXiXiXiXiXiXiXiXiX",
"iXiXiXiXiXiXiXiXiXJ / j iXiXiXiXiXiXiX>.%X3 3 '.Q iXiXiXiXiXiXiXiXiXiXiXiXiXiXiX",
"iXiXiXiXiXiXiXj ) S iXiXiXiXiXiXiXiXY.>X3XoXiX) {.a iXiXiXiXiXiXiXiXiXiXiXiXiXiX",
"iXiXiXiXiX8 Y Q n iXiXiXiXiXiXiXiX| %X3X3X>XY.iXy./ iXiXiXiXiXiXiXiXiXiXiXiXiXiX",
"iXiXiXw Y Q S 8 iXiXiXiXiXiXiXiXw `.@X-X>X%XXXa iX/ j iXiXiXiXiXiXiXiXiXiXiXiXiX",
"iXiXiXQ J a iXiXiXiXiXiXiXiXiXiXv `.XX@X@X{.Y.j iXn | iXiXiXiXiXiXiXiXiXiXiXiXiX",
"iXiXiXw iXiXiXiXiXiXiXiXiXiXiXiXn I.)._.W.S.1.a iXiXQ n iXiXiXiXiXiXiXiXiXiXiXiX",
"iXiXiXiXiXiXiXiXiXiXiXiXiXiXiXiXj *.3.3.#.R v 8 iXiXr Y w iXiXiXiXiXiXiXiXiXiXiX",
"iXiXiXiXiXiXiXiXiXiXiXiXiXiXiXiXw s u y 8 3 < iXiXiXiXv S iXiXiXiXiXiXiXiXiXiXiX",
"iXiXiXiXiXiXiXiXiXiXiXiXiXiXiXiX3 : - = & & - iXiXiXiXiXJ x iXiXiXiXiXiXiXiXiXiX",
"iXiXiXiXiXiXiXiXiXiXiXiXiXiXiXiXiX= # @ O O < iXiXiXiXiXx Q 8 iXiXiXiXiXiXiXiXiX",
"iXiXiXiXiXiXiXiXiXiXiXiXiXiXiXiXiX: o . . = iXiXiXiXiXiXiXS n iXiXiXiXiXiXiXiXiX",
"iXiXiXiXiXiXiXiXiXiXiXiXiXiXiXiXiXiX& X $ iXiXiXiXiXiXiXiX3 S w iXiXiXiXiXiXiXiX",
"iXiXiXiXiXiXiXiXiXiXiXiXiXiXiXiXiXiXiXiXiXiXiXiXiXiXiXiXiXiXr S w iXiXiXiXiXiXiX",
"iXiXiXiXiXiXiXiXiXiXiXiXiXiXiXiXiXiXiXiXiXiXiXiXiXiXiXiXiXiXiXn j iXiXiXiXiXiXiX",
"iXiXiXiXiXiXiXiXiXiXiXiXiXiXiXiXiXiXiXiXiXiXiXiXiXiXiXiXiXiXiXiXiXiXiXiXiXiXiXiX",
"iXiXiXiXiXiXiXiXiXiXiXiXiXiXiXiXiXiXiXiXiXiXiXiXiXiXiXiXiXiXiXiXiXiXiXiXiXiXiXiX",
"iXiXiXiXiXiXiXiXiXiXiXiXiXiXiXiXiXiXiXiXiXiXiXiXiXiXiXiXiXiXiXiXiXiXiXiXiXiXiXiX",
"iXiXiXiXiXiXiXiXiXiXiXiXiXiXiXiXiXiXiXiXiXiXiXiXiXiXiXiXiXiXiXiXiXiXiXiXiXiXiXiX",
"iXiXiXiXiXiXiXiXiXiXiXiXiXiXiXiXiXiXiXiXiXiXiXiXiXiXiXiXiXiXiXiXiXiXiXiXiXiXiXiX"
};
