/* XPM */
static char *Lemin_Ant2_xpm[] = {
/* width height num_colors chars_per_pixel */
"    40    50      256            2",
/* colors */
"`` c #ffffffff",
"`. c #844644",
"`# c #640204",
"`a c #642624",
"`b c #2c2624",
"`c c #9c2624",
"`d c #340204",
"`e c #b47274",
"`f c #341e1c",
"`g c #7c3634",
"`h c #943634",
"`i c #ac4644",
"`j c #4c0204",
"`k c #8c0204",
"`l c #7c2a2c",
"`m c #ac3634",
"`n c #ac6264",
"`o c #641614",
"`p c #1c1614",
"`q c #4c0e0c",
"`r c #341214",
"`s c #a42624",
"`t c #943e3c",
"`u c #9c4a4c",
"`v c #3c3634",
"`w c #440204",
"`x c #843e3c",
"`y c #ac5254",
"`z c #8c2a2c",
"`A c #842224",
"`B c #1c0204",
"`C c #742e2c",
"`D c #bc8284",
"`E c #641e1c",
"`F c #541614",
"`G c #9c2224",
"`H c #bc5a5c",
"`I c #5c0e0c",
"`J c #9c5654",
"`K c #641214",
"`L c #742624",
"`M c #3c0a0c",
"`N c #c47674",
"`O c #8c3634",
"`P c #ac4e4c",
"`Q c #5c0204",
"`R c #7c3234",
"`S c #ac3e3c",
"`T c #ac2e2c",
"`U c #a43e3c",
"`V c #4c3e3c",
"`W c #741e1c",
"`X c #140204",
"`Y c #740204",
"`Z c #942e2c",
"`0 c #3c0204",
"`1 c #a43634",
"`2 c #4c0a0c",
"`3 c #941214",
"`4 c #842a2c",
"`5 c #1c1e1c",
"`6 c #540e0c",
"`7 c #9c4e4c",
"`8 c #6c1e1c",
".` c #542224",
".. c #bc6264",
".# c #0c0a0c",
".a c #6c2624",
".b c #3c2624",
".c c #c46e6c",
".d c #843634",
".e c #9c3634",
".f c #b44644",
".g c #9c0604",
".h c #ac2a2c",
".i c #9c3e3c",
".j c #a44644",
".k c #4c3634",
".l c #440a0c",
".m c #8c3e3c",
".n c #bc5254",
".o c #8c3234",
".p c #2c0204",
".q c #5c1614",
".r c #b43e3c",
".s c #740a0c",
".t c #9c2e2c",
".u c #2c1e1c",
".v c #0c0204",
".w c #8c5654",
".x c #342624",
".y c #340604",
".z c #441614",
".A c #7c3a3c",
".B c #540204",
".C c #940204",
".D c #7c2e2c",
".E c #ac3a3c",
".F c #b45e5c",
".G c #641a1c",
".H c #4c1214",
".I c #440e0c",
".J c #a42a2c",
".K c #440604",
".L c #8c2e2c",
".M c #240204",
".N c #743234",
".O c #bc8684",
".P c #642224",
".Q c #a41e1c",
".R c #bc5e5c",
".S c #5c1214",
".T c #a45654",
".U c #742a2c",
".V c #c47a7c",
".W c #8c3a3c",
".X c #b44e4c",
".Y c #ac3234",
".Z c #a44244",
".0 c #4c4244",
".1 c #7c0204",
".2 c #943234",
".3 c #3c0604",
".4 c #540a0c",
".5 c #842e2c",
".6 c #242224",
".7 c #541214",
".8 c #6c2224",
"#` c #c46664",
"#. c #6c2a2c",
"## c #c47274",
"#a c #9c3a3c",
"#b c #b44a4c",
"#c c #9c4244",
"#d c #a44a4c",
"#e c #4c3a3c",
"#f c #8c4244",
"#g c #5c1a1c",
"#h c #b44244",
"#i c #bc5654",
"#j c #000000",
"#k c #000000",
"#l c #000000",
"#m c #000000",
"#n c #000000",
"#o c #000000",
"#p c #000000",
"#q c #000000",
"#r c #000000",
"#s c #000000",
"#t c #000000",
"#u c #000000",
"#v c #000000",
"#w c #000000",
"#x c #000000",
"#y c #000000",
"#z c #000000",
"#A c #000000",
"#B c #000000",
"#C c #000000",
"#D c #000000",
"#E c #000000",
"#F c #000000",
"#G c #000000",
"#H c #000000",
"#I c #000000",
"#J c #000000",
"#K c #000000",
"#L c #000000",
"#M c #000000",
"#N c #000000",
"#O c #000000",
"#P c #000000",
"#Q c #000000",
"#R c #000000",
"#S c #000000",
"#T c #000000",
"#U c #000000",
"#V c #000000",
"#W c #000000",
"#X c #000000",
"#Y c #000000",
"#Z c #000000",
"#0 c #000000",
"#1 c #000000",
"#2 c #000000",
"#3 c #000000",
"#4 c #000000",
"#5 c #000000",
"#6 c #000000",
"#7 c #000000",
"#8 c #000000",
"a` c #000000",
"a. c #000000",
"a# c #000000",
"aa c #000000",
"ab c #000000",
"ac c #000000",
"ad c #000000",
"ae c #000000",
"af c #000000",
"ag c #000000",
"ah c #000000",
"ai c #000000",
"aj c #000000",
"ak c #000000",
"al c #000000",
"am c #000000",
"an c #000000",
"ao c #000000",
"ap c #000000",
"aq c #000000",
"ar c #000000",
"as c #000000",
"at c #000000",
"au c #000000",
"av c #000000",
"aw c #000000",
"ax c #000000",
"ay c #000000",
"az c #000000",
"aA c #000000",
"aB c #000000",
"aC c #000000",
"aD c #000000",
"aE c #000000",
"aF c #000000",
"aG c #000000",
"aH c #000000",
"aI c #000000",
"aJ c #000000",
"aK c #000000",
"aL c #000000",
"aM c #000000",
"aN c #000000",
"aO c #000000",
"aP c #000000",
"aQ c #000000",
"aR c #000000",
"aS c #000000",
"aT c #000000",
"aU c #000000",
"aV c #000000",
"aW c #000000",
"aX c #000000",
"aY c #000000",
"aZ c #000000",
"a0 c #000000",
"a1 c #000000",
"a2 c #000000",
"a3 c #000000",
"a4 c #000000",
"a5 c #000000",
"a6 c #000000",
"a7 c #000000",
"a8 c #000000",
/* pixels */
"````````````````````````````````````````````````````````````````````````````````",
"````````````````````````````````````````````````````````````````````````````````",
"````````````````````````````````````````````````````````````````````````````````",
"````````````````````````````````````````````````````````````````````````````````",
"````````````````````````````````````````````````````````````````````````````````",
"````````````````````````````````````````````````````````````````````````````````",
"````````````````````````````.H.a``````````````.q.H``````````````````````````````",
"````````````````````````````.7.A.v`````````````C.8``````````````````````````````",
"````````````````````````````.H`R``````````````.a.P```````````````F.l````````````",
"````````````````````````````#g`g```````````````F`C`````````````F`L.3````````````",
"`````````````````````````````F.q``````````````.p`F.3.p``````.l.8.p``````````````",
"```````````````````````````q.P``````````````````#g.N.p````.3`E.3````````````````",
"```````````````````````````q`R.P```````````````C`.`F````.p.q.3``````````````````",
"````````````````````````````.3.N.U.H`x`a`g`a#..A`M``````.7.3````````````````````",
"`````````````````````````````````r`b.w`e.V.w.u.#``````#g#g``````````````````````",
"`````````````````````````````````p`5.0`D`N`V`5`5````.7.d.y``````````````````````",
"`````````````````````````````````5`5.6.O##.6`5.6```d`x#g````````````````````````",
"`````````````````````````````````f`5#e.c.c.k`5`v``.a.8``````````````````````````",
"````````````````````````````````.`.x`.....`..x.z.G`L.v``````````````````````````",
"`````q`F`````````````````````````q`P.n#i.T.X.W`l.t.K````````````````````````````",
"`````q.U`E#g.l```````````````````X`C`i#b#h`m`z`G.4``````````````````````````````",
"````````.l.q`E`E.H`````````````````X.d#h`t.Y`s`I.v``````````````````````````````",
"```````````````q.a.U#g.v```````````2.m.f.i.L.S.v````````````````````````````````",
"``````````````````.l.N.A.a`L`C.q.l.m.f.f.E.L.p``````````````````````````````````",
"```````````d.q.q`o.G`E`L`C.Z.Z`U#a.E`h`m`T`c`2``````````````````````````````````",
"```````````d`6`6`6.S`2.v.v`0`6`o`W`c.h`s`s`A.p``````````````````````````````````",
"````````````````````````````````.M.4`A.Y`T.t`I.M.v``````````````````````````````",
"``````````````````````````````````.p.o`m.2.L`1`O.D.G`q`F#g.q`q.y````````````````",
"`````````````````````````````````X`l.E`m.2.K`6`Z.2`O`x`8`q.y.l.y````````````````",
"`````````````````````````````````8.d.U`S.5.M```0.3.M.K.G`L.I````````````````````",
"``````````````````````````````.G.j.3`d#d.S``````````````.7.U.G``````````````````",
"`````````````````````````````6`P.a.v#g.F.8````````````````.p.S.q`q``````````````",
"``````````````````````````.p`7`R.v.7`n....`g``````````````````.3.S`E.q`d````````",
"``````````````````````````.8`L``.p`J..#`...F.G`````````````````````2.G.G.7``````",
"````````````````````````.q`R`X```6`y.R.R.R`H`x.p```````````````````````d`q``````",
"``````````````````````.l`R`2````.G.f.n`H`H#i`u`d````````````````````````````````",
"``````````````````````.G`6```````I.J#h#b.X#b`t.l````````````````````````````````",
"`````````````````````2`6````````.B`3.Q`s`T.Y.t.4````````````````````````````````",
"``````````````````.3.q`d`````````d`Y`k`k.C.g.s`0````````````````````````````````",
"``````````````````.7.3```````````X`j`#`Y.1.1.B`X````````````````````````````````",
"````````````````.7`q```````````````0.B`Q`Q`#`j``````````````````````````````````",
"``````````````.q.G.p``````````````.v`0`j`j`j`0``````````````````````````````````",
"`````````````d`8.3``````````````````.v`0`d`w````````````````````````````````````",
"``````````````````````````````````````.v`B``````````````````````````````````````",
"````````````````````````````````````````````````````````````````````````````````",
"````````````````````````````````````````````````````````````````````````````````",
"````````````````````````````````````````````````````````````````````````````````",
"````````````````````````````````````````````````````````````````````````````````",
"````````````````````````````````````````````````````````````````````````````````",
"````````````````````````````````````````````````````````````````````````````````"
};
