/* XPM */
static char *lemin_ant2[] = {
/* columns rows colors chars-per-pixel */
"40 50 211 2 ",
"   c #4A0000",
".  c #4B0000",
"X  c #500000",
"o  c #550000",
"O  c #570000",
"+  c #590000",
"@  c #5B0000",
"#  c #5F0000",
"$  c #620000",
"%  c #640000",
"&  c #6E0000",
"*  c #730000",
"=  c #750000",
"-  c #770000",
";  c #7B0000",
":  c #810000",
">  c #840000",
",  c #890000",
"<  c #8A0000",
"1  c #8B0000",
"2  c #8B0101",
"3  c #8C0101",
"4  c #8E0000",
"5  c #8C0202",
"6  c #8C0303",
"7  c #8D0303",
"8  c #8D0404",
"9  c #8D0505",
"0  c #8E0606",
"q  c #8E0707",
"w  c #8F0707",
"e  c #8F0808",
"r  c #8F0909",
"t  c #920000",
"y  c #960404",
"u  c #900909",
"i  c #900A0A",
"p  c #900B0B",
"a  c #910B0B",
"s  c #940B0B",
"d  c #910C0C",
"f  c #910D0D",
"g  c #920D0D",
"h  c #920E0E",
"j  c #920F0F",
"k  c #931010",
"l  c #921111",
"z  c #931111",
"x  c #931212",
"c  c #941212",
"v  c #941313",
"b  c #941414",
"n  c #951414",
"m  c #951515",
"M  c #951616",
"N  c #961616",
"B  c #961717",
"V  c #991010",
"C  c #961818",
"Z  c #971818",
"A  c #971919",
"S  c #971A1A",
"D  c #971B1B",
"F  c #981B1B",
"G  c #981C1C",
"H  c #981D1D",
"J  c #991D1D",
"K  c #991E1E",
"L  c #991F1F",
"P  c #9A1F1F",
"I  c #A01C1C",
"U  c #9A2020",
"Y  c #9A2121",
"T  c #9B2121",
"R  c #9B2323",
"E  c #9C2121",
"W  c #9E2323",
"Q  c #9C2424",
"!  c #9C2525",
"~  c #9C2626",
"^  c #9D2626",
"/  c #9D2727",
"(  c #9D2828",
")  c #9E2828",
"_  c #9E2929",
"`  c #9E2A2A",
"'  c #9F2A2A",
"]  c #9F2C2C",
"[  c #A12222",
"{  c #A22525",
"}  c #A32626",
"|  c #A32727",
" . c #A42727",
".. c #A02929",
"X. c #A22B2B",
"o. c #A52828",
"O. c #A52929",
"+. c #A12C2C",
"@. c #A02D2D",
"#. c #A02E2E",
"$. c #A02F2F",
"%. c #A12F2F",
"&. c #A22F2F",
"*. c #A52C2C",
"=. c #A52D2D",
"-. c #A72D2D",
";. c #A42E2E",
":. c #A52E2E",
">. c #A72E2E",
",. c #A82F2F",
"<. c #A13030",
"1. c #A23030",
"2. c #A23131",
"3. c #A33232",
"4. c #A23333",
"5. c #A33333",
"6. c #A43030",
"7. c #A53131",
"8. c #A43232",
"9. c #A53333",
"0. c #A23434",
"q. c #A33434",
"w. c #A43434",
"e. c #A73434",
"r. c #A43636",
"t. c #A53636",
"y. c #A63737",
"u. c #A73737",
"i. c #A83030",
"p. c #A93232",
"a. c #A83434",
"s. c #AB3636",
"d. c #AB3737",
"f. c #A53838",
"g. c #A53939",
"h. c #A73838",
"j. c #A53A3A",
"k. c #A63C3C",
"l. c #A73D3D",
"z. c #A83838",
"x. c #AB3838",
"c. c #AB3939",
"v. c #AA3A3A",
"b. c #AD3B3B",
"n. c #A93C3C",
"m. c #A93E3E",
"M. c #AA3E3E",
"N. c #AB3F3F",
"B. c #AD3C3C",
"V. c #AC3D3D",
"C. c #AE3F3F",
"Z. c #A84040",
"A. c #A94040",
"S. c #A94141",
"D. c #AA4141",
"F. c #AA4343",
"G. c #AB4343",
"H. c #AD4040",
"J. c #AC4242",
"K. c #AD4343",
"L. c #AE4444",
"P. c #AD4A4A",
"I. c #AF4E4E",
"U. c #B04343",
"Y. c #B14444",
"T. c #B04545",
"R. c #B14646",
"E. c #B24848",
"W. c #B14B4B",
"Q. c #B34A4A",
"!. c #B04C4C",
"~. c #B24D4D",
"^. c #B34D4D",
"/. c #B24F4F",
"(. c #B44C4C",
"). c #B44D4D",
"_. c #B55353",
"`. c #B65252",
"'. c #B75353",
"]. c #B45555",
"[. c #B55757",
"{. c #B85656",
"}. c #B95757",
"|. c #B75E5E",
" X c #BA5A5A",
".X c #BA5B5B",
"XX c #B95C5C",
"oX c #BA5C5C",
"OX c #BB5D5D",
"+X c #B85E5E",
"@X c #BB5E5E",
"#X c #BB6161",
"$X c #BA6262",
"%X c #BB6262",
"&X c #BC6060",
"*X c #BC6161",
"=X c #BD6161",
"-X c #BD6262",
";X c #BE6464",
":X c #BE6565",
">X c #C06969",
",X c #C16B6B",
"<X c #C16C6C",
"1X c #C37070",
"2X c #C47272",
"3X c #C27575",
"4X c #C57474",
"5X c #C57575",
"6X c #C47676",
"7X c #C67878",
"8X c None",
/* pixels */
"8X8X8X8X8X8X8X8X8X8X8X8X8X8X8X8X8X8X8X8X8X8X8X8X8X8X8X8X8X8X8X8X8X8X8X8X8X8X8X8X",
"8X8X8X8X8X8X8X8X8X8X8X8X8X8X8X8X8X8X8X8X8X8X8X8X8X8X8X8X8X8X8X8X8X8X8X8X8X8X8X8X",
"8X8X8X8X8X8X8X8X8X8X8X8X8X8X8X8X8X8X8X8X8X8X8X8X8X8X8X8X8X8X8X8X8X8X8X8X8X8X8X8X",
"8X8X8X8X8X8X8X8X8X8X8X8X8X8X8X8X8X8X8X8X8X8X8X8X8X8X8X8X8X8X8X8X8X8X8X8X8X8X8X8X",
"8X8X8X8X8X8X8X8X8X8X8X8X8X8X8X8X8X8X8X8X8X8X8X8X8X8X8X8X8X8X8X8X8X8X8X8X8X8X8X8X",
"8X8X8X8X8X8X8X8X8X8X8X8X8X8X8X8X8X8X8X8X8X8X8X8X8X8X8X8X8X8X8X8X8X8X8X8X8X8X8X8X",
"8X8X8X8X8X8X8X8X8X8X8X8X8X8XC ` 8X8X8X8X8X8X8XK C 8X8X8X8X8X8X8X8X8X8X8X8X8X8X8X",
"8X8X8X8X8X8X8X8X8X8X8X8X8X8XC k.8X8X8X8X8X8X8X<./ 8X8X8X8X8X8X8X8X8X8X8X8X8X8X8X",
"8X8X8X8X8X8X8X8X8X8X8X8X8X8XC q.8X8X8X8X8X8X8X/ Q 8X8X8X8X8X8X8XC v 8X8X8X8X8X8X",
"8X8X8X8X8X8X8X8X8X8X8X8X8X8XR q.8X8X8X8X8X8X8XR %.8X8X8X8X8X8XK / p 8X8X8X8X8X8X",
"8X8X8X8X8X8X8X8X8X8X8X8X8X8XK K 8X8X8X8X8X8X8X2 K d 6 8X8X8Xv / 2 8X8X8X8X8X8X8X",
"8X8X8X8X8X8X8X8X8X8X8X8X8XN R 8X8X8X8X8X8X8X8X8XK <.6 8X8Xd K 0 8X8X8X8X8X8X8X8X",
"8X8X8X8X8X8X8X8X8X8X8X8X8Xv q./ 8X8X8X8X8X8X8X<.P.F 8X8X6 C p 8X8X8X8X8X8X8X8X8X",
"8X8X8X8X8X8X8X8X8X8X8X8X8X8Xd <.%.K A.` k.] %.A.d 8X8X8XN p 8X8X8X8X8X8X8X8X8X8X",
"8X8X8X8X8X8X8X8X8X8X8X8X8X8X8X8Xz I.4X3X7X4X` 8X8X8X8XR K 8X8X8X8X8X8X8X8X8X8X8X",
"8X8X8X8X8X8X8X8X8X8X8X8X8X8X8X8X8X+X1X4X4X4Xk.8X8X8XC A.0 8X8X8X8X8X8X8X8X8X8X8X",
"8X8X8X8X8X8X8X8X8X8X8X8X8X8X8X8Xv %X,X1X2X1X+X0 8Xp A.K 8X8X8X8X8X8X8X8X8X8X8X8X",
"8X8X8X8X8X8X8X8X8X8X8X8X8X8X8X8XQ .X:X,X,X,X&XK 8X/ R 8X8X8X8X8X8X8X8X8X8X8X8X8X",
"8X8X8X8X8X8X8X8X8X8X8X8X8X8X8X8X/ {.+X>X:X+X`.v K / 8X8X8X8X8X8X8X8X8X8X8X8X8X8X",
"8X8XN F 8X8X8X8X8X8X8X8X8X8X8X8Xv Q.`.{.].Q.M.%.:.e 8X8X8X8X8X8X8X8X8X8X8X8X8X8X",
"8X8XN ` R R d 8X8X8X8X8X8X8X8X8X8X<.R.R.R.d.X.[ p 8X8X8X8X8X8X8X8X8X8X8X8X8X8X8X",
"8X8X8X8Xd F R R C 8X8X8X8X8X8X8X8X8Xy.R.M.p. .d 8X8X8X8X8X8X8X8X8X8X8X8X8X8X8X8X",
"8X8X8X8X8X8X8XN / ] R 8X8X8X8X8X8Xv J.R.N.6.z 8X8X8X8X8X8X8X8X8X8X8X8X8X8X8X8X8X",
"8X8X8X8X8X8X8X8X8Xz <.M./ ` <.F v A.R.U.b.:.2 8X8X8X8X8X8X8X8X8X8X8X8X8X8X8X8X8X",
"8X8X8X8X8X0 C C C K K X.<.K.J.N.b.a.z.a.-. .p 8X8X8X8X8X8X8X8X8X8X8X8X8X8X8X8X8X",
"8X8X8X8X8X0 v v z v d 8X8Xe d N Q  . .O. .Q 6 8X8X8X8X8X8X8X8X8X8X8X8X8X8X8X8X8X",
"8X8X8X8X8X8X8X8X8X8X8X8X8X8X8X8X8Xd X.:.-.:.v 8X8X8X8X8X8X8X8X8X8X8X8X8X8X8X8X8X",
"8X8X8X8X8X8X8X8X8X8X8X8X8X8X8X8X8X6 p.d.6.6.a.z.6.R N C R K N e 8X8X8X8X8X8X8X8X",
"8X8X8X8X8X8X8X8X8X8X8X8X8X8X8X8X8X%.b.a.6.e z %.p.k.M.R z p v 0 8X8X8X8X8X8X8X8X",
"8X8X8X8X8X8X8X8X8X8X8X8X8X8X8X8XR y.:.N.6.8X8Xe 0 8Xe F ` d 8X8X8X8X8X8X8X8X8X8X",
"8X8X8X8X8X8X8X8X8X8X8X8X8X8X8XK J.p 0 Q.N 8X8X8X8X8X8X8Xv %.K 8X8X8X8X8X8X8X8X8X",
"8X8X8X8X8X8X8X8X8X8X8X8X8X8XN (./ 8XK +X/ 8X8X8X8X8X8X8X8X6 C C v 8X8X8X8X8X8X8X",
"8X8X8X8X8X8X8X8X8X8X8X8X8X8X/.<.8XF %X:X&Xk.8X8X8X8X8X8X8X8X8Xp N R C 0 8X8X8X8X",
"8X8X8X8X8X8X8X8X8X8X8X8X8X/ ` 8X6 ].&X:X&X.XK 8X8X8X8X8X8X8X8X8X8Xv K F N 8X8X8X",
"8X8X8X8X8X8X8X8X8X8X8X8XF k.8X8XN `.OX&X&X.XA.6 8X8X8X8X8X8X8X8X8X8X8X0 v 8X8X8X",
"8X8X8X8X8X8X8X8X8X8X8Xd 6.d 8X8XF R.'. X.X{./.0 8X8X8X8X8X8X8X8X8X8X8X8X8X8X8X8X",
"8X8X8X8X8X8X8X8X8X8X8XK v 8X8X8Xz :.N.Q.(.Q.J.d 8X8X8X8X8X8X8X8X8X8X8X8X8X8X8X8X",
"8X8X8X8X8X8X8X8X8X8Xv v 8X8X8X8X0 V I O.-.-.:.d 8X8X8X8X8X8X8X8X8X8X8X8X8X8X8X8X",
"8X8X8X8X8X8X8X8X8Xp C 6 8X8X8X8X2 > 2 6 t y s 6 8X8X8X8X8X8X8X8X8X8X8X8X8X8X8X8X",
"8X8X8X8X8X8X8X8X8XN p 8X8X8X8X8X8X= & & = ; : 8X8X8X8X8X8X8X8X8X8X8X8X8X8X8X8X8X",
"8X8X8X8X8X8X8X8XN z 8X8X8X8X8X8X8X: + O + % ; 8X8X8X8X8X8X8X8X8X8X8X8X8X8X8X8X8X",
"8X8X8X8X8X8X8XF K 2 8X8X8X8X8X8X8X8X$     O > 8X8X8X8X8X8X8X8X8X8X8X8X8X8X8X8X8X",
"8X8X8X8X8X8X0 R e 8X8X8X8X8X8X8X8X8X8X# X - 8X8X8X8X8X8X8X8X8X8X8X8X8X8X8X8X8X8X",
"8X8X8X8X8X8X8X8X8X8X8X8X8X8X8X8X8X8X8X8X8X8X8X8X8X8X8X8X8X8X8X8X8X8X8X8X8X8X8X8X",
"8X8X8X8X8X8X8X8X8X8X8X8X8X8X8X8X8X8X8X8X8X8X8X8X8X8X8X8X8X8X8X8X8X8X8X8X8X8X8X8X",
"8X8X8X8X8X8X8X8X8X8X8X8X8X8X8X8X8X8X8X8X8X8X8X8X8X8X8X8X8X8X8X8X8X8X8X8X8X8X8X8X",
"8X8X8X8X8X8X8X8X8X8X8X8X8X8X8X8X8X8X8X8X8X8X8X8X8X8X8X8X8X8X8X8X8X8X8X8X8X8X8X8X",
"8X8X8X8X8X8X8X8X8X8X8X8X8X8X8X8X8X8X8X8X8X8X8X8X8X8X8X8X8X8X8X8X8X8X8X8X8X8X8X8X",
"8X8X8X8X8X8X8X8X8X8X8X8X8X8X8X8X8X8X8X8X8X8X8X8X8X8X8X8X8X8X8X8X8X8X8X8X8X8X8X8X",
"8X8X8X8X8X8X8X8X8X8X8X8X8X8X8X8X8X8X8X8X8X8X8X8X8X8X8X8X8X8X8X8X8X8X8X8X8X8X8X8X"
};
