/* XPM */
static char *Lemin_Ant1_xpm[] = {
/* width height num_colors chars_per_pixel */
"    40    50      256            2",
/* colors */
"`` c #ffffffff",
"`. c #4c4644",
"`# c #640204",
"`a c #6c2624",
"`b c #242224",
"`c c #942e2c",
"`d c #340204",
"`e c #9c4a4c",
"`f c #3c1614",
"`g c #a46a6c",
"`h c #8c0204",
"`i c #7c3634",
"`j c #a45a5c",
"`k c #943a3c",
"`l c #4c0204",
"`m c #641614",
"`n c #b44644",
"`o c #842a2c",
"`p c #4c1214",
"`q c #a42624",
"`r c #ac3a3c",
"`s c #842224",
"`t c #141614",
"`u c #3c0a0c",
"`v c #9c5254",
"`w c #7c3e3c",
"`x c #641e1c",
"`y c #542224",
"`z c #9c1e1c",
"`A c #bc5a5c",
"`B c #4c0a0c",
"`C c #4c1e1c",
"`D c #742e2c",
"`E c #a43a3c",
"`F c #1c0204",
"`G c #641214",
"`H c #440204",
"`I c #bc8684",
"`J c #a42e2c",
"`K c #3c3634",
"`L c #ac4644",
"`M c #c46e6c",
"`N c #8c3a3c",
"`O c #842e2c",
"`P c #5c1214",
"`Q c #742224",
"`R c #bc6264",
"`S c #844a4c",
"`T c #740204",
"`U c #742624",
"`V c #342624",
"`W c #943234",
"`X c #3c0204",
"`Y c #9c0604",
"`Z c #843634",
"`0 c #944244",
"`1 c #5c0204",
"`2 c #6c1614",
"`3 c #bc5254",
"`4 c #ac5254",
"`5 c #8c3e3c",
"`6 c #6c1e1c",
"`7 c #9c2224",
"`8 c #540a0c",
".` c #140204",
".. c #9c2a2c",
".# c #a44644",
".a c #441a1c",
".b c #8c0a0c",
".c c #ac5a5c",
".d c #9c3e3c",
".e c #540204",
".f c #541214",
".g c #ac2a2c",
".h c #b44244",
".i c #2c1e1c",
".j c #440a0c",
".k c #a45254",
".l c #843e3c",
".m c #4c3634",
".n c #5c1a1c",
".o c #7c3234",
".p c #a44244",
".q c #2c0204",
".r c #ac2e2c",
".s c #c47674",
".t c #8c2e2c",
".u c #c46664",
".v c #845a5c",
".w c #0c0204",
".x c #6c0204",
".y c #6c2a2c",
".z c #2c2224",
".A c #340604",
".B c #341e1c",
".C c #ac6e6c",
".D c #940204",
".E c #7c3a3c",
".F c #943e3c",
".G c #4c0604",
".H c #641a1c",
".I c #b44a4c",
".J c #8c2624",
".K c #a42a2c",
".L c #ac3e3c",
".M c #1c1e1c",
".N c #9c5654",
".O c #642224",
".P c #a41a1c",
".Q c #bc5e5c",
".R c #4c0e0c",
".S c #541a1c",
".T c #743234",
".U c #a43e3c",
".V c #240204",
".W c #7c1214",
".X c #440604",
".Y c #ac4e4c",
".Z c #c47274",
".0 c #843234",
".1 c #5c1614",
".2 c #bc6664",
".3 c #7c5254",
".4 c #7c0204",
".5 c #742a2c",
".6 c #3c2a2c",
".7 c #3c0604",
".8 c #843a3c",
"#` c #6c1a1c",
"#. c #4c3e3c",
"## c #a42224",
"#a c #6c2224",
"#b c #a44a4c",
"#c c #844244",
"#d c #ac3234",
"#e c #bc5654",
"#f c #540e0c",
"#g c #9c2e2c",
"#h c #ac5e5c",
"#i c #541614",
"#j c #440e0c",
"#k c #000000",
"#l c #000000",
"#m c #000000",
"#n c #000000",
"#o c #000000",
"#p c #000000",
"#q c #000000",
"#r c #000000",
"#s c #000000",
"#t c #000000",
"#u c #000000",
"#v c #000000",
"#w c #000000",
"#x c #000000",
"#y c #000000",
"#z c #000000",
"#A c #000000",
"#B c #000000",
"#C c #000000",
"#D c #000000",
"#E c #000000",
"#F c #000000",
"#G c #000000",
"#H c #000000",
"#I c #000000",
"#J c #000000",
"#K c #000000",
"#L c #000000",
"#M c #000000",
"#N c #000000",
"#O c #000000",
"#P c #000000",
"#Q c #000000",
"#R c #000000",
"#S c #000000",
"#T c #000000",
"#U c #000000",
"#V c #000000",
"#W c #000000",
"#X c #000000",
"#Y c #000000",
"#Z c #000000",
"#0 c #000000",
"#1 c #000000",
"#2 c #000000",
"#3 c #000000",
"#4 c #000000",
"#5 c #000000",
"#6 c #000000",
"#7 c #000000",
"#8 c #000000",
"a` c #000000",
"a. c #000000",
"a# c #000000",
"aa c #000000",
"ab c #000000",
"ac c #000000",
"ad c #000000",
"ae c #000000",
"af c #000000",
"ag c #000000",
"ah c #000000",
"ai c #000000",
"aj c #000000",
"ak c #000000",
"al c #000000",
"am c #000000",
"an c #000000",
"ao c #000000",
"ap c #000000",
"aq c #000000",
"ar c #000000",
"as c #000000",
"at c #000000",
"au c #000000",
"av c #000000",
"aw c #000000",
"ax c #000000",
"ay c #000000",
"az c #000000",
"aA c #000000",
"aB c #000000",
"aC c #000000",
"aD c #000000",
"aE c #000000",
"aF c #000000",
"aG c #000000",
"aH c #000000",
"aI c #000000",
"aJ c #000000",
"aK c #000000",
"aL c #000000",
"aM c #000000",
"aN c #000000",
"aO c #000000",
"aP c #000000",
"aQ c #000000",
"aR c #000000",
"aS c #000000",
"aT c #000000",
"aU c #000000",
"aV c #000000",
"aW c #000000",
"aX c #000000",
"aY c #000000",
"aZ c #000000",
"a0 c #000000",
"a1 c #000000",
"a2 c #000000",
"a3 c #000000",
"a4 c #000000",
"a5 c #000000",
"a6 c #000000",
"a7 c #000000",
"a8 c #000000",
/* pixels */
"````````````````````````````````````````````````````````````````````````````````",
"````````````````````````````````````````````````````````````````````````````````",
"````````````````````````````````````````````````````````````````````````````````",
"````````````````````````````````````````````````````````````````````````````````",
"````````````````````````````````````````````````````````````````````````````````",
"````````````````````````````````````````````````````````````````````````````````",
"``````````````````````````````.n.O``````````````.j`d````````````````````````````",
"```````````````````````````````D`D````````````.w`w`p````````````````````````````",
"````````````.j`u```````````````U.y````````````.w.l.R````````````````````````````",
"````````````.R`a.7`````````````D.O``````````````.E`p````````````````````````````",
"``````````````.j#a`d````````.j`w.7```````````````D#a````````````````````````````",
"````````````````#i.5.q````.q`w.f``````````````````.5.j``````````````````````````",
"``````````````````.H`x````.q.o.T`d```````````````p`i`p``````````````````````````",
"````````````````````.H`p```````D`w`p#i.S`p#j`d`D`i.R````````````````````````````",
"`````````````````````d`U.7```````f.i.v.C`g.3.i.a````````````````````````````````",
"``````````````````````.R.T.w`````t.M`.`I.Z#..M`b````````````````````````````````",
"````````````````````````.5`D.w``.M.M`b`I`M`b.M.M````````````````````````````````",
"````````````````````````.q`i.f``.i.M#.`M`M.m.M`K````````````````````````.7#i````",
"``````````````````````````.7.o`d.a`V`S.u.2`S.6`y````````````````````.7.1#a.1````",
"`````````````````````````````G`W`G.F`3`j.c#e`4.f````````````````.q.1.n.f.q``````",
"````````````````````````````.w`2`7`s`r.h`e.I`5`F```````````````x#a#j````````````",
"``````````````````````````````.``2##`Q`N`n.8`d````````````.7`a`a.R`B.q``````````",
"````````````````````````````````.`#`#a`N`n`5.j``.``d.j`p.5`v.T.f.1`x`d``````````",
"``````````````````````````````````.q`c`r.h`n`i`m.8`e#b.#.5`m.R.j.q``````````````",
"```````````````````````````````````B..#d#d#d.r#g#g`c`6`B.w``````````````````````",
"``````````````````````````````````.V`s.K`q`q`z`G.G`X.w``````````````````````````",
"````````````````````````````````.w.7`O#d.r.J`G.w````````````````````````````````",
"``````````````````````````.w.V.1.5.d`E`k#d.t.V``````````````````````````````````",
"````````````````.q.R.f`p.n`i`e`L.U`6`P`k.L`r`P``````````````````````````````````",
"```````````````d.H`a#j.H.o.o#a`6`8``.V`N.h.F`O`F````````````````````````````````",
"``````````````.q.q```B.5.R.`.w````````.H`L.R.o.o.```````````````````````````````",
"``````````````````.1`a.j````````````.``D#h.q.q.k`x``````````````````````````````",
"``````````````.j#a.H``````````````.w#c`R.2.N`F`6.k.7````````````````````````````",
"``````````.q.H#a#f`````````````````U.Q`R.u`R#c.`.T#a````````````````````````````",
"```````d.1#a.1`d`````````````````d#b.Q.Q`R`A`4.7.w#a.j``````````````````````````",
"```````x.H.7````````````````````.R#b#e`A#e`3.##f```P`U``````````````````````````",
"```````d````````````````````````#f.p.I.I`n.L#g`B````#a#f````````````````````````",
"````````````````````````````````#f...r.r`q.P.W`X````.7`6`d``````````````````````",
"````````````````````````````````.G.b`Y.D`h`h`#.V``````#f`P``````````````````````",
"`````````````````````````````````d.x.4`T.x`T`l``````````.H.j````````````````````",
"````````````````````````````````.``l`#`1.e`l`d``````````.j`6.q``````````````````",
"```````````````````````````````````X`l`l`H`H.w`````````````P.f``````````````````",
"`````````````````````````````````````H`X`H````````````````.q.f`d````````````````",
"```````````````````````````````````````F````````````````````.7.f`d``````````````",
"``````````````````````````````````````````````````````````````#f.j``````````````",
"````````````````````````````````````````````````````````````````````````````````",
"````````````````````````````````````````````````````````````````````````````````",
"````````````````````````````````````````````````````````````````````````````````",
"````````````````````````````````````````````````````````````````````````````````",
"````````````````````````````````````````````````````````````````````````````````"
};
