/* XPM */
static char *start[] = {
/* columns rows colors chars-per-pixel */
"100 40 104 2 ",
"   c black",
".  c #3F3F3F",
"X  c #626262",
"o  c gray42",
"O  c gray50",
"+  c #808080",
"@  c #818181",
"#  c #838383",
"$  c #848484",
"%  c #868686",
"&  c #898989",
"*  c gray54",
"=  c #8B8B8B",
"-  c #8E8E8E",
";  c #909090",
":  c gray57",
">  c #929292",
",  c gray58",
"<  c gray59",
"1  c #989898",
"2  c gray60",
"3  c #9D9D9D",
"4  c #9F9F9F",
"5  c gray63",
"6  c #A2A2A2",
"7  c gray64",
"8  c #A4A4A4",
"9  c #A5A5A5",
"0  c gray65",
"q  c #A7A7A7",
"w  c gray66",
"e  c #AAAAAA",
"r  c gray67",
"t  c #ACACAC",
"y  c gray68",
"u  c gray69",
"i  c #B1B1B1",
"p  c #B2B2B2",
"a  c gray70",
"s  c #B4B4B4",
"d  c gray71",
"f  c #B6B6B6",
"g  c #B9B9B9",
"h  c gray73",
"j  c #BBBBBB",
"k  c #BCBCBC",
"l  c gray74",
"z  c gray75",
"x  c #C0C0C0",
"c  c #C1C1C1",
"v  c gray76",
"b  c #C3C3C3",
"n  c gray77",
"m  c #C6C6C6",
"M  c gray78",
"N  c #C8C8C8",
"B  c #CACACA",
"V  c #CBCBCB",
"C  c #CDCDCD",
"Z  c #CECECE",
"A  c #D0D0D0",
"S  c gray82",
"D  c #D2D2D2",
"F  c LightGray",
"G  c gray83",
"H  c #D5D5D5",
"J  c #D7D7D7",
"K  c #D8D8D8",
"L  c gray85",
"P  c #DADADA",
"I  c gray86",
"U  c #DDDDDD",
"Y  c gray87",
"T  c #DFDFDF",
"R  c gray88",
"E  c #E1E1E1",
"W  c #E2E2E2",
"Q  c gray89",
"!  c #E4E4E4",
"~  c gray90",
"^  c #E7E7E7",
"/  c #E9E9E9",
"(  c #EAEAEA",
")  c gray92",
"_  c #ECECEC",
"`  c gray93",
"'  c #EEEEEE",
"]  c #EFEFEF",
"[  c gray94",
"{  c #F1F1F1",
"}  c gray95",
"|  c #F3F3F3",
" . c #F4F4F4",
".. c #F6F6F6",
"X. c gray97",
"o. c #F8F8F8",
"O. c #F9F9F9",
"+. c gray98",
"@. c #FBFBFB",
"#. c gray99",
"$. c #FDFDFD",
"%. c #FEFEFE",
"&. c gray100",
"*. c None",
/* pixels */
"*.*.*.*.*.*.*.*.*.*.*.*.*.*.*.*.*.*.*.*.*.*.*.*.*.*.*.*.*.*.*.*.*.*.*.*.*.*.*.*.*.*.*.*.*.*.*.*.*.*.*.*.*.*.*.*.*.*.*.*.*.*.*.*.*.*.*.*.*.*.*.*.*.*.*.*.*.*.*.*.*.*.*.*.*.*.*.*.*.*.*.*.*.*.*.*.*.*.*.*.",
"*.*.*.*.*.*.*.*.*.*.*.*.*.*.*.*.*.*.*.*.*.*.*.*.*.*.*.*.*.*.*.*.*.*.*.*.*.*.*.*.*.*.*.*.*.*.*.*.*.*.*.*.*.*.*.*.*.*.*.*.*.*.*.*.*.*.*.*.*.*.*.*.*.*.*.*.*.*.*.*.*.*.*.*.*.*.*.*.*.*.*.*.*.*.*.*.*.*.*.*.",
"*.*.*.*.*.*.*.*.*.*.*.*.*.*.*.*.*.*.*.*.*.*.*.*.*.*.*.*.*.*.*.*.*.*.*.*.*.*.*.*.*.*.*.*.*.*.*.*.*.*.*.*.*.*.*.*.*.*.*.*.*.*.*.*.*.*.*.*.*.*.*.*.*.*.*.*.*.*.*.*.*.*.*.*.*.*.*.*.*.*.*.*.*.*.*.*.*.*.*.*.",
"*.*.*.*.*.*.*.*.*.*.*.*.*.*.*.*.*.*.*.*.*.*.*.*.*.*.*.*.*.*.*.*.*.*.*.*.*.*.*.*.*.*.*.*.*.*.*.*.*.*.*.*.*.*.*.*.*.*.*.*.*.*.*.*.*.*.*.*.*.*.*.*.*.*.*.*.*.*.*.*.*.*.*.*.*.*.*.*.*.*.*.*.*.*.*.*.*.*.*.*.",
"*.*.*.*.*.*.*.*.*.*.*.*.*.*.*.*.*.*.*.*.*.*.*.*.*.*.*.*.*.*.*.*.*.*.*.*.*.*.*.*.*.*.*.*.*.*.*.*.*.*.*.*.*.*.*.*.*.*.*.*.*.*.*.*.*.*.*.*.*.*.*.*.*.*.*.*.*.*.*.*.*.*.*.*.*.*.*.*.*.*.*.*.*.*.*.*.*.*.*.*.",
"*.*.*.*.*.*.*.*.*.*.*.*.*.*.*.*.*.*.*.*.*.*.*.*.*.*.*.*.*.*.*.*.*.*.*.*.*.*.*.*.*.*.*.*.*.*.*.*.*.*.*.*.*.*.*.*.*.*.*.*.*.*.*.*.*.*.*.*.*.*.*.*.*.*.*.*.*.*.*.*.*.*.*.*.*.*.*.*.*.*.*.*.*.*.*.*.*.*.*.*.",
"*.*.*.*.*.*.*.*.*.*.*.*.*.*.*.*.*.*.*.*.*.*.*.*.*.*.*.*.*.*.*.*.*.*.*.*.*.*.*.*.*.*.*.*.*.*.*.*.*.*.*.*.*.*.*.*.*.*.*.*.*.*.*.*.*.*.*.*.*.*.*.*.*.*.*.*.*.*.*.*.*.*.*.*.*.*.*.*.*.*.*.*.*.*.*.*.*.*.*.*.",
"*.*.*.*.*.*.*.*.*.*.*.*.*.*.*.*.*.*.*.*.*.*.*.*.*.*.*.*.*.*.*.*.*.*.*.*.*.*.*.*.*.*.*.*.*.*.*.*.*.*.*.*.*.*.*.*.*.*.*.*.*.*.*.*.*.*.*.*.*.*.*.*.*.*.*.*.*.*.*.*.*.*.*.*.*.*.*.*.*.*.*.*.*.*.*.*.*.*.*.*.",
"*.*.*.*.*.*.*.*.*.            *.*.*.*.*.*.*.*.*.*.*.*.*.*.*.*.*.*.*.*.*.*.*.*.*.*.*.*.*.*.*.*.*.*.*.*.*.*.*.*.*.*.*.*.*.*.*.*.*.*.*.*.*.*.*.*.*.*.*.*.*.*.*.*.*.*.*.*.*.*.*.*.*.*.*.*.*.*.*.*.*.*.*.*.*.",
"*.*.*.*.*.*.*.X i B ~ ~ ~ ~ z 7 . *.*.*.*.*.*.*.*.*.*.*.*.*.*.*.*.*.*.*.*.*.*.*.*.*.*.*.*.*.*.*.*.*.*.*.*.*.*.*.*.*.*.*.*.*.*.*.*.*.*.*.*.*.*.*.*.*.*.*.*.*.*.*.*.*.*.*.*.*.*.*.@ ~ ( @.*.*.*.*.*.*.*.*.",
"*.*.*.*.*.*.B &.&.&.&.&.&.&.&.&.@.z *.*.*.*.*.*.*.*.X H &.*.*.*.*.*.*.*.*.*.*.*.*.*.*.*.*.*.*.*.*.*.*.*.*.*.*.*.*.*.*.*.*.*.*.*.*.*.*.  i {  .*.*.*.*.*.*.*.*.*.*.*.*.*.*.*.*.*. .&.&.&.*.*.*.*.*.*.*.*.",
"*.*.*.*.*.] &.&.&.&.&.&.&.&.&.&.&.&.H *.*.*.*.*.*.B &.&.&.*.*.*.*.*.*.*.*.*.*.*.*.*.*.*.*.*.*.*.*.*.*.*.*.*.*.*.*.*.*.*.*.*.*.*.*.*.< { &.&.&.*.*.*.*.*.*.*.*.*.*.*.*.*.*.*.*.W &.&.&.&.*.*.*.*.*.*.*.*.",
"*.*.*.*.( &.&.&.&.&.F 9 3 C &.&.&.&.&.*.*.*.*.*.@.&.&.&.&.*.*.*.*.*.*.*.*.*.*.*.*.*.*.*.*.*.*.*.*.*.*.*.*.*.*.*.*.*.*.*.*.*.*.*.*.P &.&.&.&.&.*.*.*.*.*.*.*.*.*.*.*.*.*.*.*.*.&.&.&.&.*.*.*.*.*.*.*.*.*.",
"*.*.*.*.&.&.&.&.&.&.*.*.*.c s z F ] &.&.*.*.*.*.&.&.&.&.&.*.*.*.*.*.*.*.*.*.*.*.        *.*.*.*.*.*.*.*.*.*.*.*.*.*.*.*.*.*.*.*.*.T &.&.&.&.&.*.*.*.*.*.*.*.*.*.*.*.*.*.*.*.@.&.&.&.&.*.*.*.*.*.*.*.*.*.",
"*.*.*.*.&.&.&.&.&.&.*.*.*.*.( e * < z &.*.*.*.*.&.&.&.&.&.T 7 *.*.*.*.*.*.  : i z z z z 7 X   *.*.*.*.*.: : : : X   7 z z *.*.*.*.] &.&.&.&.&.*.9 *.*.*.*.*.*.*.*.*.*.*.*.*.&.&.&.&.&.*.*.*.*.*.*.*.*.*.",
"*.*.*.*.&.&.&.&.&.&.( c *.*.*.*.*.*.*.*.*.*.&.&.&.&.&.&.&.&.&.&.*.*.*.*.z @.&.&.&.&.&.&.&.&.~ o *.*.*.( &.&.&.&.z H &.&.&.&.*.*.&.&.&.&.&.&.&.&.&.*.*.*.*.*.*.*.*.*.*.*.*.&.&.&.&.&.*.*.*.*.*.*.*.*.*.*.",
"*.*.*.*.] ( &.&.&.&.&.&.&.@.~ *.*.*.*.*.*.*.&.&.&.&.&.&.&.&.&.&.*.*.*.~ &.&.&.&.&.&.&.&.&.&.&. .*.*.*.*.&.&.&.&. .&.&.&.&.&.*.&.&.&.&.&.&.&.&.&.&.&.*.*.*.*.*.*.*.*.*.*.*.&.&.&.&.&.*.*.*.*.*.*.*.*.*.*.",
"*.*.*.*.*.e y W &.&.&.&.&.&.&.&.@.c *.*.*.*.&.&.&.&.&.&.&.&.(  .*.*.*.&.&.&.&.&.W P @.&.&.&.&.&.*.*.*.&.&.&.&.&.&.&.&.B z ] *.@.@.&.&.&.&.&.&. .] &.*.*.*.*.*.*.*.*.*.*.*.&.&.&.&.&.*.*.*.*.*.*.*.*.*.*.",
"*.*.*.*.*.T * @ 9 P &.&.&.&.&.&.&.&.] *.*.*.( W &.&.&.&.&.H c H *.*.&. .C z M F ( *.*.&.&.&.&.&.&.*.*.&.&.&.&.&.&.C 7 i 7 *.*.( T ] &.&.&.&.( C M { *.*.*.*.*.*.*.*.*.*.*.&.&.&.&.&.*.*.*.*.*.*.*.*.*.*.",
"*.*.*.*.*.*.*.F 2 O O * z &.&.&.&.&.&.] *.*.*.*.&.&.&.&.&. .*.*.*.*.*.*.@.&.&.&.*.*.*.&.&.&.&.&.&.*.*.&.&.&.&.&.@.F *.*.*.*.*.*.*.&.&.&.&.&.&.*.*.*.*.*.*.*.*.*.*.*.*.*.&.&.&.&.&.*.*.*.*.*.*.*.*.*.*.*.",
"*.*.*.*.*.*.*.*.*.] h 9 * < ] &.&.&.&.&.*.*.*.*.&.&.&.&.&.*.*.*.*.*.*.*.*.*.*.&.&.&.&.&.&.&.&.&.&.*.*.&.&.&.&.&.&.*.*.*.*.*.*.*.*.&.&.&.&.&.&.*.*.*.*.*.*.*.*.*.*.*.*.*.&.&.&.&.&.*.*.*.*.*.*.*.*.*.*.*.",
"*.*.*.*.2 : : P &.*.*.*.*.P ] &.&.&.&.&.*.*.*.*.&.&.&.&.&.*.*.*.*.*.*.*.~ &.&.&.&.&.&.&.&.&.&.&.&.*.*.&.&.&.&.&.&.*.*.*.*.*.*.*.*.&.&.&.&.&.&.*.*.*.*.*.*.*.*.*.*.*.*.*.&.&.&.&.&.*.*.*.*.*.*.*.*.*.*.*.",
"*.*.*.&.&.&.&.&.&.*.*.*.*.*.&.&.&.&.&.&.*.*.*.*.&.&.&.&.&.*.*.*.*.*.*.&.&.&.&.&.&.{ @.&.&.&.&.&.&.*.*.&.&.&.&.&.&.*.*.*.*.*.*.*.*.&.&.&.&.&.&.*.*.*.*.*.*.*.*.*.*.*.*.*.&.&.&.&.&.*.*.*.*.*.*.*.*.*.*.*.",
"*.*.*.&.&.&.&.&.&.~ *.*.*.*.&.&.&.&.&.&.*.*.*.*.&.&.&.&.&.*.*.*.*.*.&.&.&.&.&.&.*.*.*.&.&.&.&.&.&.*.*.&.&.&.&.&.&.*.*.*.*.*.*.*.*.&.&.&.&.&.&.*.*.*.*.*.*.*.*.*.*.*.*.*.&.&.&.&.&.*.*.*.*.*.*.*.*.*.*.*.",
"*.*.*.*.@.&.&.&.&.&.T 7 : P &.&.&.&.W ~ *.*.*.*.&.&.&.&.&.( 3 H *.*.&.&.&.&.&.*.*.*.*.&.&.&.&.&.&.*.*.&.&.&.&.&.&.*.*.*.*.*.*.*.*.&.&.&.&.&.&.h s *.*.*.*.*.*.*.*.*.*.*.*.&.&.&.&.&.*.*.*.*.*.*.*.*.*.*.",
"*.*.*.*.F e C &.&.&.&.&.&.&.&.&.{ s 9 *.*.*.*.*.@.&.&.&.&.&.&.&.*.*.&.&.&.&.&.&.*.&.&.&.&.&.&.&.&.*.*.&.&.&.&.&.&.*.*.*.*.*.*.*.*.&.&.&.&.&.&.&.&.*.*.*.*.*.*.*.*.*.*.*.*.&.&.&.&.&.*.*.*.*.*.*.*.*.*.*.",
"*.*.*.*.*.7 O @ s { &.&.&.&.( 9 @ * P *.*.*.*.*.T e i F @.&.&.&.*.*.W 7 9 H &.&.&.&.&.T y e c W &.*.*.&.W B M P @.*.*.*.*.*.*.*.*.*.z y c ~ &.&.&.&.*.*.*.*.*.*.*.*.*.*.*.&.&.&.&.&.*.*.*.*.*.*.*.*.*.*.",
"*.*.*.*.*.*.C 3 $ O O O O O @ : i *.*.*.*.*.*.*.*.e O O O @ @ z  .*.*.h $ O O O - : h *.* O @ O i &.*.T O O O O M *.*.*.*.*.*.*.*.*.T * O O O O 9 ( *.*.*.*.*.*.*.*.*.*.*.@.&.&.&.&.*.*.*.*.*.*.*.*.*.*.",
"*.*.*.*.*.*.*.*.*.{ C C F C *.*.*.*.*.*.*.*.*.*.*.*.*.C C C ~ *.*.*.*.*.*.P C C { *.*.*.*.*.*.*.*.*.*.*.*.*.*.*.*.*.*.*.*.*.*.*.*.*.*.*.~ C F C *.*.*.*.*.*.*.*.*.*.*.*.*.*.( &.&.&.*.*.*.*.*.*.*.*.*.*.",
"*.*.*.*.*.*.*.*.*.*.*.*.*.*.*.*.*.*.*.*.*.*.*.*.*.*.*.*.*.*.*.*.*.*.*.*.*.*.*.*.*.*.*.*.*.*.*.*.*.*.*.*.*.*.*.*.*.*.*.*.*.*.*.*.*.*.*.*.*.*.*.*.*.*.*.*.*.*.*.*.*.*.*.*.*.*.( { &.&.&.*.*.*.*.*.*.*.*.*.",
"*.*.*.*.*.*.*.*.*.*.*.*.*.*.*.*.*.*.*.*.*.*.*.*.*.*.*.*.*.*.*.*.*.*.*.*.*.*.*.*.*.*.*.*.*.*.*.*.*.*.*.*.*.*.*.*.*.*.*.*.*.*.*.*.*.*.*.*.*.*.*.*.*.*.*.*.*.*.*.*.*.*.*.*.*.*.*.H &.&.&.*.*.*.*.*.*.*.*.*.",
"*.*.*.*.*.*.*.*.*.*.*.*.*.*.*.*.*.*.*.*.*.*.*.*.*.*.*.*.*.*.*.*.*.*.*.*.*.*.*.*.*.*.*.*.*.*.*.*.*.*.*.*.*.*.*.*.*.*.*.*.*.*.*.*.*.*.*.*.*.*.*.*.*.*.*.*.*.*.*.*.*.*.*.*.*.*.*.~ h { &.&.*.*.*.*.*.*.*.*.",
"*.*.*.*.*.*.*.*.*.*.*.*.*.*.*.*.*.*.*.*.*.*.*.*.*.*.*.*.*.*.*.*.*.*.*.*.*.*.*.*.*.*.*.*.*.*.*.*.*.*.*.*.*.*.*.*.*.*.*.*.*.*.*.*.*.*.*.*.*.*.*.*.*.*.*.*.*.*.*.*.*.*.*.*.*.*.*.*.h $ c &.*.*.*.*.*.*.*.*.",
"*.*.*.*.*.*.*.*.*.*.*.*.*.*.*.*.*.*.*.*.*.*.*.*.*.*.*.*.*.*.*.*.*.*.*.*.*.*.*.*.*.*.*.*.*.*.*.*.*.*.*.*.*.*.*.*.*.*.*.*.*.*.*.*.*.*.*.*.*.*.*.*.*.*.*.*.*.*.*.*.*.*.*.*.*.*.*.*.*.C F ] *.*.*.*.*.*.*.*.",
"*.*.*.*.*.*.*.*.*.*.*.*.*.*.*.*.*.*.*.*.*.*.*.*.*.*.*.*.*.*.*.*.*.*.*.*.*.*.*.*.*.*.*.*.*.*.*.*.*.*.*.*.*.*.*.*.*.*.*.*.*.*.*.*.*.*.*.*.*.*.*.*.*.*.*.*.*.*.*.*.*.*.*.*.*.*.*.*.*.*.*.*.*.*.*.*.*.*.*.*.",
"*.*.*.*.*.*.*.*.*.*.*.*.*.*.*.*.*.*.*.*.*.*.*.*.*.*.*.*.*.*.*.*.*.*.*.*.*.*.*.*.*.*.*.*.*.*.*.*.*.*.*.*.*.*.*.*.*.*.*.*.*.*.*.*.*.*.*.*.*.*.*.*.*.*.*.*.*.*.*.*.*.*.*.*.*.*.*.*.*.*.*.*.*.*.*.*.*.*.*.*.",
"*.*.*.*.*.*.*.*.*.*.*.*.*.*.*.*.*.*.*.*.*.*.*.*.*.*.*.*.*.*.*.*.*.*.*.*.*.*.*.*.*.*.*.*.*.*.*.*.*.*.*.*.*.*.*.*.*.*.*.*.*.*.*.*.*.*.*.*.*.*.*.*.*.*.*.*.*.*.*.*.*.*.*.*.*.*.*.*.*.*.*.*.*.*.*.*.*.*.*.*.",
"*.*.*.*.*.*.*.*.*.*.*.*.*.*.*.*.*.*.*.*.*.*.*.*.*.*.*.*.*.*.*.*.*.*.*.*.*.*.*.*.*.*.*.*.*.*.*.*.*.*.*.*.*.*.*.*.*.*.*.*.*.*.*.*.*.*.*.*.*.*.*.*.*.*.*.*.*.*.*.*.*.*.*.*.*.*.*.*.*.*.*.*.*.*.*.*.*.*.*.*.",
"*.*.*.*.*.*.*.*.*.*.*.*.*.*.*.*.*.*.*.*.*.*.*.*.*.*.*.*.*.*.*.*.*.*.*.*.*.*.*.*.*.*.*.*.*.*.*.*.*.*.*.*.*.*.*.*.*.*.*.*.*.*.*.*.*.*.*.*.*.*.*.*.*.*.*.*.*.*.*.*.*.*.*.*.*.*.*.*.*.*.*.*.*.*.*.*.*.*.*.*.",
"*.*.*.*.*.*.*.*.*.*.*.*.*.*.*.*.*.*.*.*.*.*.*.*.*.*.*.*.*.*.*.*.*.*.*.*.*.*.*.*.*.*.*.*.*.*.*.*.*.*.*.*.*.*.*.*.*.*.*.*.*.*.*.*.*.*.*.*.*.*.*.*.*.*.*.*.*.*.*.*.*.*.*.*.*.*.*.*.*.*.*.*.*.*.*.*.*.*.*.*."
};
